<?xml version="1.0" encoding="iso-8859-1"?>
<!-- Generator: Adobe Illustrator 16.0.0, SVG Export Plug-In . SVG Version: 6.00 Build 0)  -->
<!DOCTYPE svg PUBLIC "-//W3C//DTD SVG 1.1//EN" "http://www.w3.org/Graphics/SVG/1.1/DTD/svg11.dtd">
<svg version="1.1" id="Capa_1" xmlns="http://www.w3.org/2000/svg" xmlns:xlink="http://www.w3.org/1999/xlink" x="0px" y="0px"
	 width="915.2px" height="915.2px" viewBox="0 0 915.2 915.2" style="enable-background:new 0 0 915.2 915.2;" xml:space="preserve"
	>
	<g $fill>
		<path d="M457.601,0C281.8,0,139.2,142.5,139.2,318.4c0,74.1,25.3,142.2,67.7,196.3l0,0c0,0,79.2,102.899,113.2,208.899h122.5
			V488.4c-45.601-7.2-80.5-46.801-80.5-94.301c0-8.3,6.7-15,15-15s15,6.7,15,15c0,36.101,29.399,65.5,65.5,65.5
			c36.1,0,65.5-29.399,65.5-65.5c0-8.3,6.7-15,15-15s15,6.7,15,15c0,47.601-34.9,87.101-80.5,94.301V723.6h122.5
			c34-106,113.2-208.899,113.2-208.899l0,0C750.7,460.6,776,392.5,776,318.4C776,142.6,633.4,0,457.601,0z"/>
		<rect x="314.301" y="753.6" width="286.5" height="61.601"/>
		<path d="M314.301,865.2c0,27.6,22.399,50,50,50h186.5c27.6,0,50-22.4,50-50v-20h-286.5V865.2z"/>
	</g>
</svg>
