<svg height="512pt" viewBox="-79 0 512 512" width="512pt" xmlns="http://www.w3.org/2000/svg">
<g $fill>
<path d="m76.328125 391.902344h200.667969v40.058594h-200.667969zm0 0"/>
<path d="m176.664062 512c31.722657 0 58.59375-21.125 67.316407-50.039062h-134.636719c8.722656 28.917968 35.59375 50.039062 67.320312 50.039062zm0 0"/>
<path d="m301.460938 51.625c-33.363282-33.300781-77.664063-51.625-124.796876-51.625-.113281 0-.230468 0-.34375 0-97.355468.1875-176.453124 79.546875-176.320312 176.90625.0585938 43.207031 15.886719 84.777344 44.566406 117.046875 17.226563 19.386719 27.941406 43.101563 30.914063 67.949219h202.425781c3.0625-24.929688 13.8125-48.710938 31.042969-68.164063 28.617187-32.300781 44.375-73.882812 44.375-117.074219 0-47.253906-18.417969-91.660156-51.863281-125.039062zm-18.132813 140.039062h-31.519531c-1.992188 10.003907-5.9375 19.3125-11.425782 27.507813l22.308594 22.308594-21.210937 21.214843-22.308594-22.308593c-8.199219 5.484375-17.503906 9.429687-27.511719 11.425781v31.519531h-30v-31.519531c-10.003906-1.996094-19.3125-5.941406-27.507812-11.425781l-22.308594 22.308593-21.214844-21.214843 22.308594-22.308594c-5.484375-8.195313-9.429688-17.503906-11.425781-27.507813h-31.519531v-30h31.519531c1.996093-10.003906 5.941406-19.3125 11.425781-27.507812l-22.308594-22.308594 21.214844-21.214844 22.308594 22.308594c8.195312-5.484375 17.503906-9.429687 27.507812-11.425781v-31.519531h30v31.519531c10.003906 1.996094 19.3125 5.941406 27.507813 11.425781l22.308593-22.308594 21.214844 21.214844-22.308594 22.308594c5.484376 8.195312 9.429688 17.503906 11.425782 27.507812h31.519531zm0 0"/><path d="m176.664062 130.03125c-25.714843 0-46.632812 20.921875-46.632812 46.632812 0 25.710938 20.917969 46.632813 46.632812 46.632813 25.710938 0 46.628907-20.921875 46.628907-46.632813 0-25.710937-20.917969-46.632812-46.628907-46.632812zm0 0"/>
</g>
</svg>