<?xml version="1.0" encoding="iso-8859-1"?>
<!-- Generator: Adobe Illustrator 21.0.0, SVG Export Plug-In . SVG Version: 6.00 Build 0)  -->
<svg xmlns="http://www.w3.org/2000/svg" xmlns:xlink="http://www.w3.org/1999/xlink" version="1.1" id="Capa_1" x="0px" y="0px" viewBox="0 0 512 512" style="enable-background:new 0 0 512 512;" xml:space="preserve" width="512" height="512">
<g $fill>
	<path d="M374.885,281.363c9.233,17.906,18.53,31.906,26.38,42.28L512,264.375V105.04H330.692   C335.012,187.445,356.519,245.749,374.885,281.363z"/>
	<path d="M380.686,497c0,8.284,6.716,15,15,15H512V299.733l-101.494,53.274C399.925,388.972,380.686,459.526,380.686,497z"/>
	<path d="M0,299.39V512h116.313c8.284,0,15-6.716,15-15c0-37.521-19.287-108.204-29.859-144.128L0,299.39z"/>
	<path d="M0,265.487l110.622,58.305c7.874-10.389,17.216-24.437,26.494-42.429c30.814-59.754,41.442-124.85,44.181-176.322H0   V265.487z"/>
	<path d="M497,0H15C6.716,0,0,6.716,0,15v60.04h512V15C512,6.716,505.284,0,497,0z"/>
</g>
</svg>
