<svg height="448pt" viewBox="0 -18 448 448" width="448pt" xmlns="http://www.w3.org/2000/svg">
<g $fill>
<path d="m376 267.121094c-1.207031 0-2.398438 0-3.511719.0625-2.550781.179687-5.027343-.890625-6.640625-2.871094-1.625-1.964844-2.222656-4.582031-1.601562-7.054688 2.476562-9.855468 3.738281-19.976562 3.753906-30.136718-.074219-66.246094-53.757812-119.925782-120-120-10.695312.007812-21.34375 1.421875-31.671875 4.207031-40.371094 10.898437-72.101563 42.117187-83.65625 82.304687-.777344 2.664063-1.460937 5.378907-2.046875 8.136719-1.753906 8.335938-2.632812 16.832031-2.625 25.351563 0 1.597656 0 3.199218.128906 4.800781.234375 2.714844-.925781 5.363281-3.085937 7.027344-2.160157 1.667969-5.019531 2.117187-7.585938 1.195312-9.453125-3.367187-19.421875-5.066406-29.457031-5.023437-48.601562 0-88 39.398437-88 88 0 48.601562 39.398438 88 88 88h288c39.765625 0 72-32.238282 72-72 0-39.765625-32.234375-72-72-72zm0 0"/>
<path d="m12.878906 158.238281c26.046875 28.78125 65.125 42.039063 103.304688 35.050781.191406-.746093.433594-1.457031.640625-2.191406.351562-1.304687.726562-2.597656 1.121093-3.890625.503907-1.640625 1.039063-3.269531 1.597657-4.878906.433593-1.25.871093-2.496094 1.34375-3.726563.609375-1.601562 1.265625-3.203124 1.9375-4.800781.503906-1.183593 1.007812-2.402343 1.542969-3.542969.722656-1.601562 1.496093-3.136718 2.28125-4.691406.558593-1.117187 1.121093-2.246094 1.710937-3.351562.847656-1.597656 1.746094-3.085938 2.648437-4.605469.617188-1.042969 1.207032-2.089844 1.847657-3.113281.984375-1.558594 2.023437-3.070313 3.074219-4.585938.636718-.933594 1.246093-1.878906 1.910156-2.796875 1.191406-1.601562 2.457031-3.203125 3.71875-4.800781.578125-.71875 1.121094-1.472656 1.714844-2.183594 3.773437-4.550781 7.84375-8.847656 12.183593-12.863281.71875-.664063 1.480469-1.28125 2.207031-1.929687 1.480469-1.304688 2.960938-2.617188 4.496094-3.863282.917969-.746094 1.878906-1.441406 2.824219-2.167968 1.40625-1.082032 2.808594-2.160157 4.253906-3.199219 1.042969-.738281 2.121094-1.425781 3.203125-2.136719 1.40625-.9375 2.824219-1.871094 4.269532-2.761719 1.121093-.695312 2.273437-1.335937 3.417968-1.992187 1.445313-.800782 2.902344-1.65625 4.382813-2.398438 1.191406-.625 2.398437-1.214844 3.617187-1.808594 1.488282-.726562 2.992188-1.441406 4.511719-2.113281 1.246094-.550781 2.511719-1.078125 3.785156-1.597656 1.535157-.625 3.078125-1.226563 4.644531-1.800781 1.304688-.46875 2.617188-.925782 3.945313-1.367188.703125-.242187 1.398437-.519531 2.113281-.746094.597656-4.730468.886719-9.496093.871094-14.261718 0-31.671875-13.398438-61.867188-36.878906-83.121094 3.234375 11.425781 4.875 23.246094 4.878906 35.121094-.03125 40.148437-18.882812 77.957031-50.925781 102.144531s-73.574219 31.953125-112.195313 20.972656zm0 0"/>
</g>
</svg>