<svg height="466pt" viewBox="0 -34 466 465" width="466pt" xmlns="http://www.w3.org/2000/svg">
	<g $fill>
		<path d="m224 8.5v51c0 4.417969 3.582031 8 8 8s8-3.582031 8-8v-51c0-4.417969-3.582031-8-8-8s-8 3.582031-8 8zm0 0"/>
		<path d="m458 226.5h-51c-4.417969 0-8 3.582031-8 8s3.582031 8 8 8h51c4.417969 0 8-3.582031 8-8s-3.582031-8-8-8zm0 0"/>
		<path d="m67 234.5c0-4.417969-3.582031-8-8-8h-51c-4.417969 0-8 3.582031-8 8s3.582031 8 8 8h51c4.417969 0 8-3.582031 8-8zm0 0"/>
		<path d="m356.1875 118.0625c2.121094.003906 4.160156-.839844 5.65625-2.34375l35.472656-35.472656c3.125-3.125 3.125-8.191406 0-11.316406s-8.191406-3.125-11.316406.003906l-35.472656 35.472656c-2.289063 2.285156-2.972656 5.726562-1.734375 8.71875 1.238281 2.988281 4.15625 4.9375 7.390625 4.9375zm0 0"/>
		<path d="m68.683594 68.933594c-3.125 3.121094-3.125 8.1875 0 11.3125l35.472656 35.472656c3.121094 3.125 8.1875 3.125 11.3125 0s3.125-8.191406 0-11.3125l-35.46875-35.472656c-3.125-3.128906-8.191406-3.128906-11.316406 0zm0 0"/>
		<path d="m443 301.5h-101.253906c33.761718-53.785156 23.128906-124.175781-25.011719-165.59375-48.140625-41.414062-119.328125-41.414062-167.46875 0-48.140625 41.417969-58.773437 111.808594-25.011719 165.59375h-102.253906c-4.417969 0-8 3.582031-8 8s3.582031 8 8 8h421c4.417969 0 8-3.582031 8-8s-3.582031-8-8-8zm0 0"/>
		<path d="m393 341.5h-321c-4.417969 0-8 3.582031-8 8s3.582031 8 8 8h321c4.417969 0 8-3.582031 8-8s-3.582031-8-8-8zm0 0"/>
		<path d="m343 381.5h-221c-4.417969 0-8 3.582031-8 8s3.582031 8 8 8h221c4.417969 0 8-3.582031 8-8s-3.582031-8-8-8zm0 0"/>
	</g>
</svg>