<svg height="448pt" viewBox="-60 0 448 448.10664" width="448pt" xmlns="http://www.w3.org/2000/svg">
<g $fill>
<path d="m255.644531 144.105469h48c-4.226562-82.304688-73.3125-146.222657-155.695312-144.0546878-82.386719 2.1718748-148.011719 69.6445308-147.8945315 152.0546878v296h48.0000005v-296c.023437-55.832031 44.152343-101.675781 99.949218-103.824219 55.792969-2.152344 103.320313 40.15625 107.640625 95.824219zm0 0"/>
<path d="m176.054688 416.105469v-112h-32v32c0 4.417969-3.582032 8-8 8h-72v32h72c4.417968 0 8 3.582031 8 8v32zm0 0"/>
<path d="m240.054688 160.105469h80c4.417968 0 8 3.582031 8 8v32c0 4.417969-3.582032 8-8 8h-80c-4.417969 0-8-3.582031-8-8v-32c0-4.417969 3.582031-8 8-8zm0 0"/>
<path d="m280.054688 243.410156c-11.328126 11.847656-24 28.304688-24 36.695313 0 13.257812 10.742187 24 24 24 13.253906 0 24-10.742188 24-24 0-8.40625-12.664063-24.855469-24-36.695313zm0 0"/>
</g>
</svg>