<svg id="Capa_1" enable-background="new 0 0 512 512" height="512" viewBox="0 0 512 512" width="512" xmlns="http://www.w3.org/2000/svg"><g><g><g><path d="m331.11 293.94c-7.52 21.78-11.36 44.86-11.36 68.19v6.18h-63.75l-27.426-37.185 27.426-37.185 7.809-11.365h61.277z" fill="#869fae"/><path d="m256 293.94v74.37h-63.75v-6.18c0-23.33-3.84-46.41-11.36-68.19l11.174-11.365h55.66z" fill="#cee1e4"/></g><g><path d="m393.96 144.37c0 34.79-11.76 66.7-31.35 91.62-13.77 17.52-24.32 37.15-31.5 57.95h-75.11l-51.936-137.748 51.936-156.192c76.19 0 137.96 64.64 137.96 144.37z" fill="#ffd322"/><path d="m256 0v293.94h-75.11c-7.18-20.8-17.73-40.43-31.5-57.95-19.59-24.92-31.35-56.83-31.35-91.62 0-79.73 61.77-144.37 137.96-144.37z" fill="#fff26c"/></g></g><g><path d="m441.71 458.2v30h-185.71l-16.702-15.005 16.702-14.995z" fill="#04303e"/><g><path d="m125.45 458.2h-55.16v30h55.16l9.124-4.86v-20.085z" fill="#09607d"/><path d="m197.04 458.2-9.125 6.8v17.298l9.125 5.902h58.96v-30z" fill="#09607d"/><path d="m200.04 473.2c0 5.32-1.07 10.39-3 15-5.87 13.98-19.69 23.8-35.8 23.8s-29.93-9.82-35.79-23.8c-1.94-4.61-3.01-9.68-3.01-15s1.07-10.39 3.01-15c5.86-13.98 19.68-23.81 35.79-23.81s29.93 9.83 35.8 23.81c1.93 4.61 3 9.68 3 15z" fill="#8fe26a"/></g></g></g></svg>