<?xml version="1.0" encoding="iso-8859-1"?>
<!-- Generator: Adobe Illustrator 19.0.0, SVG Export Plug-In . SVG Version: 6.00 Build 0)  -->
<svg version="1.1" id="Layer_1" xmlns="http://www.w3.org/2000/svg" xmlns:xlink="http://www.w3.org/1999/xlink" x="0px" y="0px"
	 viewBox="0 0 512 512" style="enable-background:new 0 0 512 512;" xml:space="preserve">
<path style="fill:#FFD039;" d="M256,436.569c-4.661,0-8.437-3.776-8.437-8.437v-54.81c0-4.66,3.776-8.437,8.437-8.437
	c4.66,0,8.437,3.776,8.437,8.437v54.81C264.437,432.791,260.66,436.569,256,436.569z"/>
<path style="fill:#FFAE47;" d="M256,499.994c-21.636,0-39.239-17.601-39.239-39.239c0-21.635,17.601-39.238,39.239-39.238
	c21.635,0,39.238,17.601,39.238,39.238C295.238,482.392,277.637,499.994,256,499.994z M256,438.391
	c-12.332,0-22.365,10.033-22.365,22.364c0,12.332,10.033,22.365,22.365,22.365c12.331,0,22.364-10.033,22.364-22.365
	C278.364,448.424,268.331,438.391,256,438.391z"/>
<path style="fill:#C7C6CC;" d="M479.813,71.063H32.187c-4.659,0-8.437,3.776-8.437,8.437v289.018
	c0,5.637,4.585,10.222,10.222,10.222h444.055c5.637,0,10.222-4.585,10.222-10.222V79.5C488.25,74.84,484.473,71.063,479.813,71.063z
	"/>
<path style="fill:#8A8990;" d="M479.813,71.063H32.187c-4.659,0-8.437,3.776-8.437,8.437v33.747h464.5V79.5
	C488.25,74.84,484.473,71.063,479.813,71.063z"/>
<path style="fill:#3C3B41;" d="M503.563,12.006H8.437C3.776,12.006,0,15.782,0,20.442V79.5c0,4.66,3.776,8.437,8.437,8.437h495.126
	c4.66,0,8.437-3.776,8.437-8.437V20.442C512,15.782,508.224,12.006,503.563,12.006z"/>
<path style="fill:#E93234;" d="M322.763,214.946l-100.71-68.536c-3.385-2.307-7.725-2.552-11.33-0.647
	c-3.836,2.029-6.219,6.091-6.219,10.602V293.44c0,4.511,2.383,8.573,6.219,10.602c1.612,0.852,3.369,1.273,5.124,1.273
	c2.171,0,4.335-0.645,6.206-1.919l100.71-68.536c3.225-2.195,5.15-5.917,5.15-9.958
	C327.912,220.862,325.987,217.139,322.763,214.946z"/>
<path style="fill:#B32425;" d="M210.722,304.041c1.612,0.852,3.369,1.273,5.124,1.273c2.171,0,4.335-0.645,6.206-1.919
	l100.71-68.536c3.225-2.195,5.15-5.917,5.15-9.958s-1.925-7.762-5.149-9.957l-17.225-11.722l-101.035,62.504v27.71
	C204.504,297.95,206.886,302.013,210.722,304.041z"/>
<g>
</g>
<g>
</g>
<g>
</g>
<g>
</g>
<g>
</g>
<g>
</g>
<g>
</g>
<g>
</g>
<g>
</g>
<g>
</g>
<g>
</g>
<g>
</g>
<g>
</g>
<g>
</g>
<g>
</g>
</svg>
