<svg height="512pt" viewBox="0 0 512 512" width="512pt" xmlns="http://www.w3.org/2000/svg" xmlns:xlink="http://www.w3.org/1999/xlink"><linearGradient id="a" gradientUnits="userSpaceOnUse" x1="0" x2="512" y1="256" y2="256"><stop offset="0" stop-color="#00f38d"/><stop offset="1" stop-color="#009eff"/></linearGradient><path d="m512 256c0 141.386719-114.613281 256-256 256s-256-114.613281-256-256 114.613281-256 256-256 256 114.613281 256 256zm0 0" fill="url(#a)"/><g fill="#fff"><path d="m427.398438 226.539062-171.398438-156.363281-171.398438 156.363281 20.21875 22.164063 13.640626-12.445313v134.214844c0 22.800782 18.550781 41.351563 41.351562 41.351563h192.375c22.800781 0 41.351562-18.550781 41.351562-41.351563v-134.214844l13.644532 12.445313zm-63.859376 143.933594c0 6.261719-5.09375 11.351563-11.351562 11.351563h-192.375c-6.257812 0-11.351562-5.089844-11.351562-11.351563v-161.585937l107.539062-98.105469 107.539062 98.109375zm0 0"/><path d="m241 194.570312h30v90.257813h-30zm0 0"/><path d="m256 330.945312c-31.242188 0-56.65625-25.417968-56.65625-56.660156 0-15.875 6.570312-30.238281 17.128906-40.535156v-32.441406c-25.878906 14.070312-43.484375 41.507812-43.484375 72.976562 0 45.773438 37.238281 83.011719 83.011719 83.011719 45.769531 0 83.007812-37.238281 83.007812-83.011719 0-31.46875-17.601562-58.90625-43.480468-72.976562v32.441406c10.554687 10.296875 17.128906 24.660156 17.128906 40.535156 0 31.242188-25.414062 56.660156-56.65625 56.660156zm0 0"/></g></svg>