<svg height="480pt" viewBox="0 0 480 480" width="480pt" xmlns="http://www.w3.org/2000/svg"><path d="m16 32h448v416h-448zm0 0" fill="#8de2fc"/><path d="m320.375 244.230469c1.824219-11.453125 11.65625-20.230469 23.625-20.230469 3.054688 0 5.953125.625 8.640625 1.664062 2.933594-14.632812 15.855469-25.664062 31.359375-25.664062 17.671875 0 32 14.328125 32 32 0 1.441406-.238281 2.816406-.425781 4.207031 9.753906 5.480469 16.425781 15.808594 16.425781 27.792969 0 17.671875-14.328125 32-32 32-3.238281 0-6.304688-.625-9.246094-1.519531-5.808594 5.871093-13.851562 9.519531-22.753906 9.519531-5.855469 0-11.28125-1.6875-16-4.441406-4.71875 2.753906-10.144531 4.441406-16 4.441406-17.671875 0-32-14.328125-32-32 0-11.96875 6.648438-22.28125 16.375-27.769531zm0 0" fill="#6aaabd"/><path d="m159.625 244.230469c-1.824219-11.453125-11.65625-20.230469-23.625-20.230469-3.054688 0-5.953125.625-8.640625 1.664062-2.933594-14.632812-15.855469-25.664062-31.359375-25.664062-17.671875 0-32 14.328125-32 32 0 1.441406.238281 2.816406.425781 4.207031-9.753906 5.480469-16.425781 15.808594-16.425781 27.792969 0 17.671875 14.328125 32 32 32 3.238281 0 6.304688-.625 9.246094-1.519531 5.808594 5.871093 13.851562 9.519531 22.753906 9.519531 5.855469 0 11.28125-1.6875 16-4.441406 4.71875 2.753906 10.144531 4.441406 16 4.441406 17.671875 0 32-14.328125 32-32 0-11.96875-6.648438-22.28125-16.375-27.769531zm0 0" fill="#6aaabd"/><path d="m288 112h-96v-16c0-8.839844 7.160156-16 16-16h64c8.839844 0 16 7.160156 16 16zm0 0" fill="#8d9299"/><path d="m248 80h-40c-8.839844 0-16 7.160156-16 16v16h72v-16c0-8.839844-7.160156-16-16-16zm0 0" fill="#bcc3cc"/><path d="m64 288h352v32h-352zm0 0" fill="#6a6e73"/><path d="m64 288h328v32h-328zm0 0" fill="#8d9299"/><path d="m80 320v64c0 17.671875 14.328125 32 32 32h256c17.671875 0 32-14.328125 32-32v-64" fill="#8d9299"/><path d="m376 384v-64h-296v64c0 17.671875 14.328125 32 32 32h232c17.671875 0 32-14.328125 32-32zm0 0" fill="#bcc3cc"/><path d="m112 416h32v32h-32zm0 0" fill="#6a6e73"/><path d="m336 416h32v32h-32zm0 0" fill="#6a6e73"/><path d="m0 448h480v32h-480zm0 0" fill="#8d9299"/><path d="m0 448h456v32h-456zm0 0" fill="#bcc3cc"/><path d="m0 0h480v32h-480zm0 0" fill="#8d9299"/><path d="m0 0h456v32h-456zm0 0" fill="#bcc3cc"/><path d="m232 32h16v48h-16zm0 0" fill="#8d9299"/><g fill="#ccc"><path d="m184 136h16v32h-16zm0 0"/><path d="m184 184h16v16h-16zm0 0"/><path d="m184 216h16v72h-16zm0 0"/><path d="m280 136h16v32h-16zm0 0"/><path d="m280 184h16v16h-16zm0 0"/><path d="m280 216h16v72h-16zm0 0"/><path d="m216 136h16v152h-16zm0 0"/><path d="m248 136h16v96h-16zm0 0"/><path d="m248 248h16v40h-16zm0 0"/></g></svg>