<?xml version="1.0" encoding="iso-8859-1"?>
<!-- Generator: Adobe Illustrator 19.0.0, SVG Export Plug-In . SVG Version: 6.00 Build 0)  -->
<svg version="1.1" id="Capa_1" xmlns="http://www.w3.org/2000/svg" xmlns:xlink="http://www.w3.org/1999/xlink" x="0px" y="0px"
	 viewBox="0 0 509.287 509.287" style="enable-background:new 0 0 509.287 509.287;" xml:space="preserve">
<path style="fill:#4B5AA7;" d="M509.287,254.813c0-140.715-113.928-254.644-254.644-254.644S0,114.098,0,254.813
	c0,22.718,3.052,44.758,8.816,65.78h491.656C506.236,299.571,509.287,277.531,509.287,254.813z"/>
<path style="fill:#F6CEB0;" d="M8.816,320.593c29.16,108.503,128.17,188.525,245.828,188.525s217.007-80.021,245.828-188.525H8.816z
	"/>
<path style="fill:#F0582F;" d="M372.98,107.317H136.307c-17.971,0-32.551,14.58-32.551,32.551v126.813h301.775V139.868
	C405.531,121.897,390.951,107.317,372.98,107.317z"/>
<rect x="67.815" y="244.641" style="fill:#FCFCFD;" width="373.658" height="44.079"/>
<polygon style="fill:#DEDEDF;" points="405.531,215.82 103.756,215.82 67.815,244.641 441.473,244.641 "/>
<polygon style="fill:#8E342D;" points="61.372,288.381 61.372,375.184 84.09,375.184 93.245,355.179 416.042,355.179 
	425.197,375.184 447.915,375.184 447.915,288.381 "/>
<g>
	<path style="fill:#FFFFFC;" d="M227.857,168.011h-76.63c-5.764,0-10.172,4.747-10.172,10.172v27.465
		c0,5.764,4.408,10.172,10.172,10.172h76.63c5.764,0,10.172-4.408,10.172-10.172v-27.465
		C238.029,172.419,233.282,168.011,227.857,168.011z"/>
	<path style="fill:#FFFFFC;" d="M358.061,168.011h-76.63c-5.764,0-10.172,4.747-10.172,10.172v27.465
		c0,5.764,4.408,10.172,10.172,10.172h76.63c5.764,0,10.172-4.408,10.172-10.172v-27.465
		C368.233,172.419,363.825,168.011,358.061,168.011z"/>
</g>
<g>
</g>
<g>
</g>
<g>
</g>
<g>
</g>
<g>
</g>
<g>
</g>
<g>
</g>
<g>
</g>
<g>
</g>
<g>
</g>
<g>
</g>
<g>
</g>
<g>
</g>
<g>
</g>
<g>
</g>
</svg>
