<svg height="512pt" viewBox="0 0 512 512" width="512pt" xmlns="http://www.w3.org/2000/svg"><path d="m256 394.414062c-77.425781 0-140.414062-62.988281-140.414062-140.410156 0-77.425781 62.988281-140.414062 140.414062-140.414062s140.414062 62.988281 140.414062 140.414062c0 77.421875-62.988281 140.410156-140.414062 140.410156zm0 0" fill="#ffe645"/><path d="m256 113.589844c-.003906 0-.007812 0-.007812 0v280.824218h.007812c77.425781 0 140.414062-62.988281 140.414062-140.410156 0-77.425781-62.988281-140.414062-140.414062-140.414062zm0 0" fill="#a19d8d"/><path d="m256 512c-8.285156 0-15-6.714844-15-15v-56c0-8.28125 6.714844-15 15-15s15 6.71875 15 15v56c0 8.285156-6.714844 15-15 15zm0 0" fill="#ffe645"/><path d="m497 271h-54.011719c-8.285156 0-15-6.714844-15-15 0-8.28125 6.714844-15 15-15h54.011719c8.285156 0 15 6.71875 15 15 0 8.285156-6.714844 15-15 15zm0 0" fill="#ffcf2c"/><path d="m69.011719 271h-54.011719c-8.285156 0-15-6.714844-15-15 0-8.28125 6.714844-15 15-15h54.011719c8.285156 0 15 6.71875 15 15 0 8.285156-6.714844 15-15 15zm0 0" fill="#ffe645"/><path d="m418.839844 176.996094c-5.183594 0-10.226563-2.691406-13.003906-7.503906-4.140626-7.171876-1.683594-16.347657 5.492187-20.488282l45.882813-26.492187c7.175781-4.144531 16.351562-1.683594 20.492187 5.492187 4.140625 7.171875 1.683594 16.347656-5.492187 20.488282l-45.882813 26.492187c-2.363281 1.363281-4.941406 2.011719-7.488281 2.011719zm0 0" fill="#ffcf2c"/><g fill="#ffe645"><path d="m48.140625 391.019531c-5.183594 0-10.226563-2.691406-13.003906-7.503906-4.144531-7.171875-1.683594-16.347656 5.488281-20.488281l46.785156-27.011719c7.175782-4.144531 16.347656-1.683594 20.488282 5.492187 4.144531 7.171876 1.6875 16.347657-5.488282 20.488282l-46.785156 27.011718c-2.359375 1.363282-4.941406 2.011719-7.484375 2.011719zm0 0"/><path d="m136.332031 478.246094c-2.542969 0-5.121093-.644532-7.484375-2.011719-7.175781-4.140625-9.632812-13.316406-5.492187-20.488281l27.007812-46.777344c4.140625-7.171875 13.316407-9.632812 20.488281-5.488281 7.175782 4.140625 9.632813 13.316406 5.492188 20.488281l-27.007812 46.777344c-2.777344 4.8125-7.820313 7.5-13.003907 7.5zm0 0"/><path d="m93.160156 176.996094c-2.546875 0-5.125-.648438-7.484375-2.011719l-46.78125-27.007813c-7.171875-4.140624-9.632812-13.316406-5.488281-20.492187 4.140625-7.171875 13.3125-9.632813 20.488281-5.488281l46.78125 27.007812c7.171875 4.140625 9.628907 13.316406 5.488281 20.488282-2.777343 4.8125-7.820312 7.503906-13.003906 7.503906zm0 0"/></g><path d="m464.699219 391.503906c-2.546875 0-5.125-.648437-7.488281-2.011718l-47.617188-27.492188c-7.171875-4.144531-9.628906-13.316406-5.488281-20.492188 4.140625-7.171874 13.316406-9.632812 20.488281-5.488281l47.617188 27.492188c7.175781 4.140625 9.632812 13.316406 5.492187 20.488281-2.777344 4.8125-7.820313 7.503906-13.003906 7.503906zm0 0" fill="#ffcf2c"/><path d="m375.667969 478.246094c-5.1875 0-10.226563-2.6875-13.003907-7.5l-27.003906-46.769532c-4.140625-7.175781-1.683594-16.347656 5.492188-20.488281 7.171875-4.144531 16.347656-1.6875 20.488281 5.488281l27.003906 46.769532c4.140625 7.175781 1.683594 16.347656-5.492187 20.488281-2.363282 1.367187-4.941406 2.011719-7.484375 2.011719zm0 0" fill="#ffcf2c"/><path d="m256 84c-8.285156 0-15-6.714844-15-15v-54c0-8.285156 6.714844-15 15-15s15 6.714844 15 15v54c0 8.285156-6.714844 15-15 15zm0 0" fill="#ffe645"/><path d="m348.632812 108.535156c-2.542968 0-5.125-.648437-7.484374-2.015625-7.175782-4.140625-9.632813-13.3125-5.492188-20.488281l27.007812-46.773438c4.140626-7.175781 13.3125-9.636718 20.488282-5.492187 7.175781 4.140625 9.632812 13.316406 5.492187 20.492187l-27.007812 46.773438c-2.777344 4.8125-7.820313 7.503906-13.003907 7.503906zm0 0" fill="#ffcf2c"/><path d="m163.363281 108.527344c-5.183593 0-10.226562-2.691406-13.003906-7.503906l-27.003906-46.765626c-4.140625-7.175781-1.683594-16.351562 5.492187-20.492187 7.171875-4.144531 16.347656-1.683594 20.488282 5.492187l27.003906 46.765626c4.140625 7.175781 1.683594 16.347656-5.492188 20.492187-2.359375 1.363281-4.941406 2.011719-7.484375 2.011719zm0 0" fill="#ffe645"/><path d="m256 426c-.003906 0-.007812 0-.007812 0v86h.007812c8.285156 0 15-6.714844 15-15v-56c0-8.28125-6.714844-15-15-15zm0 0" fill="#ffcf2c"/><path d="m256 0c-.003906 0-.007812 0-.007812 0v84h.007812c8.285156 0 15-6.714844 15-15v-54c0-8.285156-6.714844-15-15-15zm0 0" fill="#ffcf2c"/></svg>