<svg height="640pt" viewBox="-120 -20 640 640" width="640pt" xmlns="http://www.w3.org/2000/svg"><path d="m393.332031 200c0-110.460938-89.539062-200-200-200-110.457031 0-200 89.539062-200 200 0 78.042969 44.800781 145.46875 110 178.429688v121.570312h180v-121.570312c65.203125-32.960938 110-100.386719 110-178.429688zm0 0" fill="#d1a339"/><path d="m280.5 20.210938c-26.367188-12.824219-55.867188-20.210938-87.167969-20.210938-110.457031 0-200 89.539062-200 200 0 78.042969 44.800781 145.46875 110 178.429688v11.4375c1.671875.046874 3.320313.132812 5 .132812 124.257813 0 225-100.742188 225-225 0-55.160156-19.875-105.660156-52.832031-144.789062zm0 0" fill="#f0d365"/><path d="m123.332031 500v40h140v-40" fill="#976947"/><path d="m143.332031 540v10c0 27.613281 22.390625 50 50 50 27.613281 0 50-22.386719 50-50v-10" fill="#8892a0"/><path d="m103.332031 420h180v40h-180zm0 0" fill="#976947"/><path d="m103.332031 460h180v40h-180zm0 0" fill="#c18e59"/><g fill="#e4725f"><path d="m193.332031 140c-11.046875 0-20-8.949219-20-20v-60c0-11.050781 8.953125-20 20-20 11.050781 0 20 8.949219 20 20v60c0 11.050781-8.949219 20-20 20zm0 0"/><path d="m193.332031 350c-82.707031 0-150-67.289062-150-150 0-61.765625 38.75-118.089844 96.433594-140.152344l7.148437 18.683594c-50 19.121094-83.582031 67.929688-83.582031 121.46875 0 71.679688 58.320313 130 130 130 71.679688 0 130-58.320312 130-130 0-53.539062-33.578125-102.347656-83.566406-121.460938l7.148437-18.679687c57.667969 22.050781 96.417969 78.375 96.417969 140.140625 0 82.710938-67.289062 150-150 150zm0 0"/></g></svg>