<?xml version="1.0" encoding="iso-8859-1"?>
<!-- Generator: Adobe Illustrator 19.0.0, SVG Export Plug-In . SVG Version: 6.00 Build 0)  -->
<svg version="1.1" id="Capa_1" xmlns="http://www.w3.org/2000/svg" xmlns:xlink="http://www.w3.org/1999/xlink" x="0px" y="0px"
	 viewBox="0 0 512.128 512.128" style="enable-background:new 0 0 512.128 512.128;" xml:space="preserve">
<path style="fill:#FFD15C;" d="M450.149,194.262c0-114.133-99.2-205.867-216.533-193.067c-89.6,9.6-162.133,83.2-170.667,173.867
	c-7.467,75.733,28.8,144,87.467,182.4c17.067,10.667,27.733,29.867,27.733,50.133v75.733h156.8v-75.733
	c0-20.267,10.667-38.4,27.733-50.133C414.949,322.262,450.149,262.528,450.149,194.262z"/>
<path style="fill:#F8B64C;" d="M94.949,188.928C93.882,188.928,93.882,188.928,94.949,188.928
	c-6.4-1.067-11.733-5.333-10.667-11.733c7.467-81.067,71.467-146.133,151.467-154.667c6.4,0,10.667,3.2,11.733,9.6
	c1.067,5.333-3.2,10.667-9.6,11.733c-70.4,7.467-125.867,65.067-133.333,135.467C104.549,184.662,100.282,188.928,94.949,188.928z"
	/>
<g>
	<path style="fill:#ACB3BA;" d="M298.682,512.128h-85.333c-7.467,0-12.8-5.333-12.8-12.8v-17.067h110.933v17.067
		C311.482,506.795,306.149,512.128,298.682,512.128z"/>
	<rect x="178.15" y="394.8" style="fill:#ACB3BA;" width="156.8" height="86.4"/>
</g>
<path style="fill:#FF7058;" d="M379.749,219.862v-45.867l-20.267-3.2c-2.133-9.6-6.4-19.2-11.733-28.8l11.733-17.067l-32-32
	l-17.067,11.733c-8.533-5.333-18.133-9.6-28.8-11.733l-3.2-20.267h-45.867l-3.2,20.267c-9.6,2.133-19.2,6.4-28.8,11.733
	l-17.067-11.733l-32,32l11.733,17.067c-3.2,8.533-7.467,18.133-10.667,28.8l-20.267,3.2v45.867l20.267,3.2
	c2.133,9.6,6.4,19.2,11.733,28.8l-11.733,17.067l32,32l17.067-11.733c8.533,5.333,18.133,9.6,28.8,11.733l3.2,20.267h45.867
	l3.2-20.267c9.6-2.133,19.2-6.4,28.8-11.733l17.067,11.733l32-32l-11.733-17.067c5.333-8.533,9.6-18.133,11.733-28.8
	L379.749,219.862z M256.016,255.062c-32,0-58.667-26.667-58.667-58.667s26.667-58.667,58.667-58.667s58.667,26.667,58.667,58.667
	S288.016,255.062,256.016,255.062z"/>
<g>
	<path style="fill:#CDD6E0;" d="M339.216,418.262h-166.4c-6.4,0-11.733-5.333-11.733-11.733l0,0c0-6.4,5.333-11.733,11.733-11.733
		h165.333c6.4,0,11.733,5.333,11.733,11.733l0,0C350.949,412.928,345.616,418.262,339.216,418.262z"/>
	<path style="fill:#CDD6E0;" d="M339.216,450.262h-166.4c-6.4,0-11.733-5.333-11.733-11.733l0,0c0-6.4,5.333-11.733,11.733-11.733
		h165.333c6.4,0,11.733,5.333,11.733,11.733l0,0C350.949,444.928,345.616,450.262,339.216,450.262z"/>
	<path style="fill:#CDD6E0;" d="M339.216,482.262h-166.4c-6.4,0-11.733-5.333-11.733-11.733l0,0c0-6.4,5.333-11.733,11.733-11.733
		h165.333c6.4,0,11.733,5.333,11.733,11.733l0,0C350.949,476.928,345.616,482.262,339.216,482.262z"/>
</g>
<g>
</g>
<g>
</g>
<g>
</g>
<g>
</g>
<g>
</g>
<g>
</g>
<g>
</g>
<g>
</g>
<g>
</g>
<g>
</g>
<g>
</g>
<g>
</g>
<g>
</g>
<g>
</g>
<g>
</g>
</svg>
