<svg height="512pt" viewBox="-22 0 512 512" width="512pt" xmlns="http://www.w3.org/2000/svg"><path d="m0 167.722656v308.96875c0 19.507813 63.207031 35.308594 141.242188 35.308594 54.90625 0 102.488281-7.855469 125.878906-19.332031l15.363281-189.792969v-135.152344zm0 0" fill="#f18d46"/><path d="m282.484375 167.722656c0-19.5-63.238281-35.308594-141.242187-35.308594-78.007813 0-141.242188 15.808594-141.242188 35.308594 0 19.503906 63.234375 35.3125 141.242188 35.3125 78.003906 0 141.242187-15.808594 141.242187-35.3125zm0 0" fill="#fac176"/><path d="m256 326.621094v150.070312c0 19.507813 47.402344 35.308594 105.929688 35.308594 58.527343 0 105.933593-15.800781 105.933593-35.308594v-150.070312zm0 0" fill="#7d6599"/><path d="m211.863281 198.269531v66.558594c-.03125 9.738281-7.917969 17.625-17.65625 17.65625-9.722656-.074219-17.582031-7.9375-17.65625-17.65625v70.621094c0 9.75-7.902343 17.652343-17.652343 17.652343-9.753907 0-17.65625-7.902343-17.65625-17.652343v-35.3125c0 9.75-7.90625 17.65625-17.65625 17.65625s-17.65625-7.90625-17.65625-17.65625v-98.25zm0 0" fill="#fac176"/><path d="m141.242188 176.550781c-4.875 0-8.828126-3.953125-8.828126-8.828125v-70.621094c0-4.875 3.953126-8.824218 8.828126-8.824218s8.828124 3.949218 8.828124 8.824218v70.621094c0 4.875-3.953124 8.828125-8.828124 8.828125zm0 0" fill="#af8066"/><path d="m176.550781 61.792969c0 19.5-15.808593 35.308593-35.308593 35.308593-19.503907 0-35.3125-15.808593-35.3125-35.308593s35.3125-61.792969 35.3125-61.792969 35.308593 42.292969 35.308593 61.792969zm0 0" fill="#f3d55b"/><path d="m441.378906 350.015625v47.226563c0 9.75-7.902344 17.65625-17.65625 17.65625-9.75 0-17.652344-7.90625-17.652344-17.65625v52.964843c0 9.75-7.90625 17.65625-17.65625 17.65625s-17.65625-7.90625-17.65625-17.65625v-35.308593c0 9.75-7.902343 17.652343-17.65625 17.652343-9.75 0-17.652343-7.902343-17.652343-17.652343v-54.113282zm0 0" fill="#b49aca"/><path d="m467.863281 326.621094c0-19.5-47.429687-35.3125-105.933593-35.3125-58.503907 0-105.929688 15.8125-105.929688 35.3125s47.425781 35.308594 105.929688 35.308594c58.503906 0 105.933593-15.808594 105.933593-35.308594zm0 0" fill="#b49aca"/><path d="m361.929688 326.621094c-4.875 0-8.828126-3.953125-8.828126-8.828125v-52.964844c0-4.875 3.953126-8.828125 8.828126-8.828125s8.828124 3.953125 8.828124 8.828125v52.964844c0 4.875-3.953124 8.828125-8.828124 8.828125zm0 0" fill="#af8066"/><path d="m397.242188 229.515625c0 19.503906-15.808594 35.3125-35.3125 35.3125-19.5 0-35.308594-15.808594-35.308594-35.3125 0-19.5 35.308594-61.792969 35.308594-61.792969s35.3125 42.292969 35.3125 61.792969zm0 0" fill="#f3d55b"/></svg>