<?xml version="1.0" encoding="iso-8859-1"?>
<!-- Generator: Adobe Illustrator 19.0.0, SVG Export Plug-In . SVG Version: 6.00 Build 0)  -->
<svg version="1.1" id="Capa_1" xmlns="http://www.w3.org/2000/svg" xmlns:xlink="http://www.w3.org/1999/xlink" x="0px" y="0px"
	 viewBox="0 0 512 512" style="enable-background:new 0 0 512 512;" xml:space="preserve">
<path style="fill:#388E3C;" d="M202.667,426.667H288c5.891,0,10.667,4.776,10.667,10.667v64c0,5.891-4.776,10.667-10.667,10.667
	h-85.333c-5.891,0-10.667-4.776-10.667-10.667v-64C192,431.442,196.776,426.667,202.667,426.667z"/>
<circle style="fill:#FFB300;" cx="256" cy="341.333" r="32"/>
<path d="M256,384c-23.564,0-42.667-19.102-42.667-42.667c0-23.564,19.103-42.667,42.667-42.667s42.667,19.103,42.667,42.667
	C298.667,364.898,279.564,384,256,384z M256,320c-11.782,0-21.333,9.551-21.333,21.333s9.551,21.333,21.333,21.333
	c11.782,0,21.333-9.551,21.333-21.333S267.782,320,256,320z"/>
<path style="fill:#4CAF50;" d="M406.656,433.749c-0.846-2.267-1.294-4.663-1.323-7.083l-10.667-0.405l0,0l10.901-1.856
	c0.385-3.749-1.237-7.423-4.267-9.664c-27.35-20.844-51.506-45.575-71.701-73.408h65.067c5.891,0,10.667-4.776,10.667-10.667
	c0-3.357-1.581-6.519-4.267-8.533c-33.511-25.638-64.02-54.98-90.944-87.467h43.84c4.515-0.003,8.54-2.848,10.048-7.104
	c0.666-1.907,1.6-3.71,2.773-5.355c3.467-4.763,2.416-11.434-2.347-14.901c-0.105-0.077-0.212-0.151-0.32-0.224
	c-44.922-37.691-81.905-83.934-108.8-136.043c-2.026-5.532-8.153-8.374-13.684-6.348c-2.947,1.079-5.268,3.401-6.348,6.348
	c-11.372,23.547-25.371,45.732-41.728,66.133c-1.805,2.386-2.525,5.42-1.984,8.363c0.254,1.251,0.397,2.521,0.427,3.797
	c0,11.782-9.551,21.333-21.333,21.333c-2.985,0.003-5.833,1.256-7.851,3.456c-13.355,16.586-30.079,30.147-49.067,39.787
	c-5.573,1.908-8.544,7.974-6.636,13.547c1.492,4.358,5.614,7.266,10.22,7.21h63.211c-23.458,28.198-49.553,54.093-77.931,77.333
	c-4.586,3.698-5.306,10.413-1.608,14.999c0.093,0.115,0.188,0.228,0.286,0.34c1.773,2.021,3.149,4.359,4.053,6.891
	c1.505,4.249,5.519,7.092,10.027,7.104h45.717c-24.757,34.57-55.947,64.043-91.861,86.805c-5.078,2.986-6.774,9.524-3.788,14.602
	c1.922,3.269,5.436,5.271,9.228,5.26h321.963c5.891,0.001,10.667-4.774,10.668-10.665c0-1.222-0.21-2.435-0.62-3.585H406.656z"/>
<circle style="fill:#F44336;" cx="170.667" cy="149.333" r="42.667"/>
<g>
	<circle style="fill:#FFC107;" cx="384" cy="234.667" r="42.667"/>
	<circle style="fill:#FFC107;" cx="85.333" cy="341.333" r="42.667"/>
</g>
<circle style="fill:#F44336;" cx="426.667" cy="426.667" r="42.667"/>
<path style="fill:#FFC107;" d="M292.779,65.131l-23.595-11.797l23.573-11.797c5.272-2.633,7.412-9.042,4.779-14.315
	s-9.042-7.412-14.315-4.779l0,0L256,36.075V10.667C256,4.776,251.224,0,245.333,0c-5.891,0-10.667,4.776-10.667,10.667v25.408
	l-27.221-13.611c-5.272-2.633-11.681-0.494-14.315,4.779c-2.633,5.272-0.494,11.681,4.779,14.315l23.573,11.797l-23.573,11.797
	c-5.272,2.633-7.412,9.042-4.779,14.315c2.633,5.272,9.042,7.412,14.315,4.779l27.221-13.653V96c0,5.891,4.776,10.667,10.667,10.667
	c5.891,0,10.667-4.776,10.667-10.667V70.592l27.221,13.611c5.272,2.633,11.681,0.494,14.315-4.779s0.494-11.681-4.779-14.315
	L292.779,65.131z"/>
<g>
</g>
<g>
</g>
<g>
</g>
<g>
</g>
<g>
</g>
<g>
</g>
<g>
</g>
<g>
</g>
<g>
</g>
<g>
</g>
<g>
</g>
<g>
</g>
<g>
</g>
<g>
</g>
<g>
</g>
</svg>
