<?xml version="1.0"?>
<svg xmlns="http://www.w3.org/2000/svg" viewBox="0 0 512 512" width="512" height="512"><g id="Fill_out_line" data-name="Fill out line"><path d="M136,24H56L24,488H168ZM64,456,88,88h16l24,368Z" style="fill:#bc8d5d"/><rect x="56" y="392" width="415.99998" height="32" rx="15.99998" ry="15.99998" style="fill:#a1764a"/><rect x="104" y="328" width="144" height="64" rx="16" ry="16" style="fill:#57c1ff"/><rect x="128" y="352" width="120" height="16" style="fill:#3d9de6"/><rect x="176" y="328" width="144" height="64" rx="16" ry="16" style="fill:#65dcff"/><rect x="200" y="352" width="120" height="16" style="fill:#57c1ff"/><path d="M168,120l0,0A45.25478,45.25478,0,0,0,232,120l0,0h0a80.823,80.823,0,0,1,63.38824,54.16487L304,200l-40,16-16-32v88H152V184l-16,32L96,200l8.61171-25.83512A80.823,80.823,0,0,1,168,120Z" style="fill:#57c1ff"/><path d="M256,120l0,0A45.25478,45.25478,0,0,0,320,120l0,0h0a80.823,80.823,0,0,1,63.38824,54.16487L392,200l-40,16-16-32v88H240V184l-16,32-40-16,8.61171-25.83512A80.823,80.823,0,0,1,256,120Z" style="fill:#65dcff"/><path d="M456,24H376L344,488H488ZM384,456,408,88h16l24,368Z" style="fill:#bc8d5d"/><path d="M495.98145,487.44971l-32-464A8.00062,8.00062,0,0,0,456,16H376a8.00062,8.00062,0,0,0-7.98145,7.44971L366.32544,48H296a32,32,0,0,0-64,0V72h16V48a16,16,0,0,1,32,0H264V64h16V99.05566l-26.56836,13.28418a88.61477,88.61477,0,0,0-68.41016,59.29541l-8.61132,25.835a8.00016,8.00016,0,0,0,4.61914,9.95752l40,16a7.99956,7.99956,0,0,0,10.126-3.85009l.84473-1.689V272a8.00008,8.00008,0,0,0,8,8h88V264H248V184a7.99986,7.99986,0,0,0-15.15527-3.57764l-12.708,25.416-26.16211-10.46484,6.22656-18.67872a72.64783,72.64783,0,0,1,53.35156-48.07568,53.272,53.272,0,0,0,68.89356.00049,72.66044,72.66044,0,0,1,17.8623,6.49072l7.38282-14.19433a88.6278,88.6278,0,0,0-25.1128-8.57111L296,99.05566V64h69.22192L343.15308,384h-16.5293A23.88238,23.88238,0,0,0,328,376V344a24.02718,24.02718,0,0,0-24-24H192a24.02718,24.02718,0,0,0-24,24v32a23.88238,23.88238,0,0,0,1.37622,8H120a8.00917,8.00917,0,0,1-8-8V344a8.00917,8.00917,0,0,1,8-8h32V320H120a24.0275,24.0275,0,0,0-24,24v32a23.88238,23.88238,0,0,0,1.37622,8H76.71289L88.52734,202.84a7.97882,7.97882,0,0,0,4.502,4.58776l40,16a7.99956,7.99956,0,0,0,10.126-3.85009l.84473-1.689V272a8.00008,8.00008,0,0,0,8,8h64V264H160V184a7.99986,7.99986,0,0,0-15.15527-3.57764l-12.708,25.416-26.16211-10.46484,6.22656-18.67872a72.64622,72.64622,0,0,1,53.35156-48.07568,52.68253,52.68253,0,0,0,15.624,9.21l5.64648-14.9707a37.13516,37.13516,0,0,1-3.54443-1.55341L200,112.94434l12.42188,6.21093,7.15624-14.31054L208,99.05566V48a32,32,0,0,0-64,0V72h16V48a16,16,0,0,1,32,0V99.05566l-26.56836,13.28418a88.61477,88.61477,0,0,0-68.41016,59.29541l-8.03027,24.09137L95.49512,96h1.00976l1.59864,24.52051,15.96679-1.041-2.08691-32A8.00048,8.00048,0,0,0,104,80H88a8.00048,8.00048,0,0,0-7.9834,7.47949L60.48584,386.94922a23.97877,23.97877,0,0,0-2.63574,40.41931l-1.8335,28.111A8.0007,8.0007,0,0,0,64,464h64a8.0007,8.0007,0,0,0,7.9834-8.52051L134.45215,432h21.66626l3.31128,48H32.57031L63.46777,32H136V16H56a8.00062,8.00062,0,0,0-7.98145,7.44971l-32,464A7.99969,7.99969,0,0,0,24,496H168a7.99969,7.99969,0,0,0,7.98145-8.55029L172.15723,432H339.84277l-3.82422,55.44971A7.99969,7.99969,0,0,0,344,496H488a7.99969,7.99969,0,0,0,7.98145-8.55029Zm-224.698-366.1471L288,112.94434l16.71655,8.35827a37.32836,37.32836,0,0,1-33.4331,0ZM184,376V344a8.00917,8.00917,0,0,1,8-8H304a8.00917,8.00917,0,0,1,8,8v8H200v16H312v8a8.00917,8.00917,0,0,1-8,8H192A8.00917,8.00917,0,0,1,184,376Zm-64.53906,72H72.53906l1.04346-16h44.835ZM72,416a8,8,0,0,1,0-16H342.04956L340.946,416Zm280.57031,64L383.46777,32h65.06446l30.89746,448Z"/><path d="M424,80H408a8.00048,8.00048,0,0,0-7.9834,7.47949l-24,368A8.0007,8.0007,0,0,0,384,464h64a8.0007,8.0007,0,0,0,7.9834-8.52051l-24-368A8.00048,8.00048,0,0,0,424,80Zm-8.50488,16h1.00976l18.78223,288H396.71289ZM437.374,416H394.626l1.04345-16h40.66114Zm-44.835,32,1.04346-16h44.835l1.04346,16Z"/><rect x="128" y="352" width="24" height="16"/><rect x="107.72377" y="231.92402" width="16.0007" height="71.68077" transform="translate(-17.17574 8.09639) rotate(-3.73033)"/><rect x="96" y="48" width="32" height="16"/></g></svg>
