<svg height="512" viewBox="0 0 64 64" width="512" xmlns="http://www.w3.org/2000/svg"><g id="Coding-Programming-Monitor-Software-Computer"><path d="m56 9h-48a2.006 2.006 0 0 0 -2 2v36h52v-36a2.006 2.006 0 0 0 -2-2z" fill="#c6c5ca"/><path d="m60 47h-56a1 1 0 0 0 -1 1v3a4 4 0 0 0 4 4h50a4 4 0 0 0 4-4v-3a1 1 0 0 0 -1-1z" fill="#acabb1"/><path d="m37 47v3a1 1 0 0 1 -1 1h-8a1 1 0 0 1 -1-1v-3z" fill="#c6c5ca"/><path d="m54 13v34h-17-10-17v-34z" fill="#5aaae7"/><g fill="#1e81ce"><path d="m20.293 27.707-3-3a1 1 0 0 1 0-1.414l3-3 1.414 1.414-2.293 2.293 2.293 2.293z"/><path d="m29.707 27.707-1.414-1.414 2.293-2.293-2.293-2.293 1.414-1.414 3 3a1 1 0 0 1 0 1.414z"/><path d="m20.877 23h8.246v1.999h-8.246z" transform="matrix(.243 -.97 .97 .243 -4.351 42.426)"/><path d="m35 26h10v2h-10z"/><path d="m35 22h2v2h-2z"/><path d="m39 22h6v2h-6z"/><path d="m33 30h12v2h-12z"/><path d="m25 30h6v2h-6z"/><path d="m21 30h2v2h-2z"/><path d="m21 34h14v2h-14z"/><path d="m37 34h4v2h-4z"/><path d="m43 34h2v2h-2z"/><path d="m21 38h24v2h-24z"/></g></g></svg>