<?xml version="1.0" encoding="iso-8859-1"?>
<!-- Generator: Adobe Illustrator 19.0.0, SVG Export Plug-In . SVG Version: 6.00 Build 0)  -->
<svg version="1.1" id="Capa_1" xmlns="http://www.w3.org/2000/svg" xmlns:xlink="http://www.w3.org/1999/xlink" x="0px" y="0px"
	 viewBox="0 0 512 512" style="enable-background:new 0 0 512 512;" xml:space="preserve">
<g>
	<path style="fill:#A5A5A4;" d="M35.31,0H476.69C496.191,0,512,15.809,512,35.31V476.69c0,19.501-15.809,35.31-35.31,35.31H35.31
		C15.809,512,0,496.191,0,476.69V35.31C0,15.809,15.809,0,35.31,0z"/>
	<circle style="fill:#5E5F62;" cx="256" cy="256" r="220.69"/>
	<circle style="fill:#285680;" cx="256" cy="256" r="185.379"/>
	<path style="fill:#4482C3;" d="M372.701,356.546l0.088,0.088l-43.519,31.426c-9.976-5.032-61.175-33.368-72.474-86.157
		c-47.759,26.836-58.793,85.539-60.381,96.221h-0.088l-43.254-31.691c1.766-11.034,12.711-68.502,59.586-95.514
		c-40.431-37.164-99.575-29.484-110.169-27.719H102.4l16.684-51.023c11.123-1.677,69.032-8.915,109.286,27.101
		c22.863-49.788-2.648-103.724-7.68-113.258v-0.088l53.672,0.177c5.031,9.975,29.925,62.852,7.944,112.287
		c54.466,6.268,97.899-34.604,105.401-42.284l0.088-0.088l16.42,51.112c-7.857,7.857-50.67,47.934-104.431,42.284
		C310.731,323.178,363.079,351.779,372.701,356.546z"/>
	<circle style="fill:#E6E7E8;" cx="255.991" cy="256" r="44.138"/>
	<g>
		<circle style="fill:#5E5F62;" cx="52.966" cy="52.966" r="17.655"/>
		<circle style="fill:#5E5F62;" cx="52.966" cy="459.034" r="17.655"/>
		<circle style="fill:#5E5F62;" cx="459.034" cy="52.966" r="17.655"/>
		<circle style="fill:#5E5F62;" cx="459.034" cy="459.034" r="17.655"/>
	</g>
</g>
<g>
</g>
<g>
</g>
<g>
</g>
<g>
</g>
<g>
</g>
<g>
</g>
<g>
</g>
<g>
</g>
<g>
</g>
<g>
</g>
<g>
</g>
<g>
</g>
<g>
</g>
<g>
</g>
<g>
</g>
</svg>
