<?xml version="1.0" encoding="iso-8859-1"?>
<!-- Generator: Adobe Illustrator 19.0.0, SVG Export Plug-In . SVG Version: 6.00 Build 0)  -->
<svg version="1.1" id="Layer_1" xmlns="http://www.w3.org/2000/svg" xmlns:xlink="http://www.w3.org/1999/xlink" x="0px" y="0px"
	 viewBox="0 0 512 512" style="enable-background:new 0 0 512 512;" xml:space="preserve">
<g>
	<path style="fill:#7F6E5D;" d="M13.017,512c-4.79,0-8.678-3.879-8.678-8.669v-0.009v-26.034c0-4.79,3.888-8.678,8.678-8.678
		s8.678,3.888,8.678,8.678v26.034c0,4.79-3.879,8.678-8.669,8.678C13.026,512,13.017,512,13.017,512z"/>
	<path style="fill:#7F6E5D;" d="M169.22,512c-4.79,0-8.678-3.879-8.678-8.669v-0.009v-26.034c0-4.79,3.888-8.678,8.678-8.678
		s8.678,3.888,8.678,8.678v26.034c0,4.79-3.879,8.678-8.669,8.678H169.22z"/>
	<rect x="4.339" y="260.339" style="fill:#7F6E5D;" width="494.644" height="147.525"/>
</g>
<g>
	<rect x="4.339" y="269.017" style="fill:#B19046;" width="173.559" height="69.424"/>
	<rect x="4.339" y="399.186" style="fill:#B19046;" width="173.559" height="78.102"/>
</g>
<path style="fill:#7F6E5D;" d="M498.983,512c-4.79,0-8.678-3.879-8.678-8.669v-0.009V269.017c0-4.79,3.888-8.678,8.678-8.678
	s8.678,3.888,8.678,8.678v234.305c0,4.79-3.879,8.678-8.669,8.678H498.983z"/>
<g>
	<path style="fill:#2C2F38;" d="M99.797,312.407H82.441c-4.79,0-8.678-3.888-8.678-8.678s3.888-8.678,8.678-8.678h17.356
		c4.79,0,8.678,3.888,8.678,8.678S104.587,312.407,99.797,312.407z"/>
	<path style="fill:#2C2F38;" d="M99.797,451.254H82.441c-4.79,0-8.678-3.888-8.678-8.678s3.888-8.678,8.678-8.678h17.356
		c4.79,0,8.678,3.888,8.678,8.678S104.587,451.254,99.797,451.254z"/>
</g>
<path style="fill:#5E5F62;" d="M47.729,43.39h86.78c4.79,0,8.678,3.888,8.678,8.678v156.203c0,4.79-3.888,8.678-8.678,8.678h-86.78
	c-4.79,0-8.678-3.888-8.678-8.678V52.068C39.051,47.278,42.939,43.39,47.729,43.39z"/>
<g>
	<path style="fill:#2C2F38;" d="M108.475,86.78H73.763c-4.79,0-8.678-3.888-8.678-8.678s3.888-8.678,8.678-8.678h34.712
		c4.79,0,8.678,3.888,8.678,8.678S113.265,86.78,108.475,86.78z"/>
	<path style="fill:#2C2F38;" d="M108.475,121.492H73.763c-4.79,0-8.678-3.888-8.678-8.678s3.888-8.678,8.678-8.678h34.712
		c4.79,0,8.678,3.888,8.678,8.678S113.265,121.492,108.475,121.492z"/>
</g>
<circle style="fill:#2FA8CC;" cx="91.119" cy="164.881" r="17.356"/>
<path style="fill:#285680;" d="M221.288,0h225.627c9.589,0,17.356,7.767,17.356,17.356v130.169c0,9.589-7.767,17.356-17.356,17.356
	H221.288c-9.589,0-17.356-7.767-17.356-17.356V17.356C203.932,7.767,211.699,0,221.288,0z"/>
<polygon style="fill:#2C2F38;" points="386.169,216.949 360.136,190.915 360.136,164.881 308.068,164.881 308.068,190.915 
	282.034,216.949 "/>
<g>
	<path style="fill:#2FA8CC;" d="M238.644,60.746c-4.79,0-8.678-3.888-8.678-8.678c0-2.3,0.911-4.504,2.543-6.135l17.356-17.356
		c3.419-3.358,8.912-3.306,12.271,0.113c3.315,3.376,3.315,8.782,0,12.158l-17.356,17.356
		C243.157,59.835,240.944,60.746,238.644,60.746z"/>
	<path style="fill:#2FA8CC;" d="M256,95.458c-4.79,0-8.678-3.888-8.678-8.678c0-2.3,0.911-4.504,2.543-6.135l52.068-52.068
		c3.419-3.358,8.912-3.306,12.271,0.113c3.315,3.376,3.315,8.782,0,12.158l-52.068,52.068C260.513,94.546,258.3,95.458,256,95.458z"
		/>
</g>
<rect x="4.339" y="338.441" style="fill:#E4C05C;" width="173.559" height="69.424"/>
<path style="fill:#2C2F38;" d="M99.797,381.831H82.441c-4.79,0-8.678-3.888-8.678-8.678c0-4.79,3.888-8.678,8.678-8.678h17.356
	c4.79,0,8.678,3.888,8.678,8.678C108.475,377.943,104.587,381.831,99.797,381.831z"/>
<path style="fill:#E4C05C;" d="M21.695,216.949h468.61c9.589,0,17.356,7.767,17.356,17.356v34.712l0,0H4.339l0,0v-34.712
	C4.339,224.716,12.106,216.949,21.695,216.949z"/>
<g>
</g>
<g>
</g>
<g>
</g>
<g>
</g>
<g>
</g>
<g>
</g>
<g>
</g>
<g>
</g>
<g>
</g>
<g>
</g>
<g>
</g>
<g>
</g>
<g>
</g>
<g>
</g>
<g>
</g>
</svg>
