<svg id="Capa_1" enable-background="new 0 0 512 512" height="512" viewBox="0 0 512 512" width="512" xmlns="http://www.w3.org/2000/svg"><path d="m214.793 331.775h82.414v51.973h-82.414z" fill="#7488ed"/><path d="m266.302 331.775h30.905v51.973h-30.905z" fill="#6073d1"/><path d="m323.992 376.247h-135.984c-4.142 0-7.5 3.358-7.5 7.5s3.358 7.5 7.5 7.5h135.984c4.143 0 7.5-3.358 7.5-7.5s-3.357-7.5-7.5-7.5z" fill="#ff3d7a"/><path d="m432.99 338.418h-346.769c-11.205 0-20.289-9.084-20.289-20.289v-229.34c0-11.205 9.084-20.289 20.289-20.289h346.77c11.205 0 20.289 9.084 20.289 20.289v229.339c0 11.206-9.084 20.29-20.29 20.29z" fill="#8c9eff"/><path d="m432.991 68.5h-30.905c11.205 0 20.289 9.084 20.289 20.29v229.338c0 11.206-9.084 20.29-20.289 20.29h30.905c11.205 0 20.289-9.084 20.289-20.29v-229.338c0-11.206-9.084-20.29-20.289-20.29z" fill="#7488ed"/><path d="m96.837 304.511v-202.104c0-1.657 1.343-3 3-3h319.537c1.657 0 3 1.343 3 3v202.104c0 1.657-1.343 3-3 3h-319.537c-1.657 0-3-1.343-3-3z" fill="#bdf9ff"/><path d="m153.572 443.5h-140.254c-7.355 0-13.318-5.963-13.318-13.318v-243.282c0-7.355 5.963-13.318 13.318-13.318h140.254c7.355 0 13.318 5.963 13.318 13.318v243.282c-.001 7.355-5.963 13.318-13.318 13.318z" fill="#ffca28"/><path d="m153.572 173.582h-30.905c7.355 0 13.317 5.963 13.317 13.318v243.282c0 7.355-5.963 13.318-13.317 13.318h30.905c7.355 0 13.317-5.963 13.317-13.318v-243.282c0-7.355-5.962-13.318-13.317-13.318z" fill="#ffb300"/><path d="m503.758 423.559h-96.837c-4.552 0-8.242-3.69-8.242-8.242v-177.198c0-4.552 3.69-8.242 8.242-8.242h96.837c4.552 0 8.242 3.69 8.242 8.242v177.198c0 4.552-3.69 8.242-8.242 8.242z" fill="#ff3d7a"/><path d="m503.759 229.878h-30.905c4.552 0 8.241 3.69 8.241 8.242v177.198c0 4.552-3.69 8.242-8.241 8.242h30.905c4.552 0 8.241-3.69 8.241-8.242v-177.199c0-4.551-3.69-8.241-8.241-8.241z" fill="#eb3870"/><path d="m282.785 193.157h-53.569c-2.276 0-4.121-1.845-4.121-4.121v-53.572c0-2.276 1.845-4.121 4.121-4.121h53.569c2.276 0 4.121 1.845 4.121 4.121v53.572c-.001 2.276-1.846 4.121-4.121 4.121z" fill="#ffca28"/><g fill="#ff3d7a"><path d="m194.189 234.139h123.622c4.143 0 7.5-3.358 7.5-7.5s-3.357-7.5-7.5-7.5h-123.622c-4.142 0-7.5 3.358-7.5 7.5s3.358 7.5 7.5 7.5z"/><path d="m317.811 252.106h-123.622c-4.142 0-7.5 3.358-7.5 7.5s3.358 7.5 7.5 7.5h123.622c4.143 0 7.5-3.358 7.5-7.5s-3.358-7.5-7.5-7.5z"/><path d="m127.047 272.922h-20.995c-3.105 0-5.89 1.914-7.002 4.813l-6.128 15.976-6.576-53.632c-.417-3.401-3.086-6.087-6.485-6.526-3.401-.439-6.662 1.482-7.928 4.666l-14.415 36.236h-17.059c-4.142 0-7.5 3.358-7.5 7.5s3.358 7.5 7.5 7.5h22.146c3.072 0 5.833-1.874 6.969-4.728l5.453-13.707 6.669 54.397c.419 3.418 3.112 6.112 6.53 6.532.308.038.614.056.918.056 3.072 0 5.876-1.888 6.999-4.814l15.065-39.27h15.839c4.142 0 7.5-3.358 7.5-7.5s-3.358-7.499-7.5-7.499z"/></g><path d="m109.199 403.806h-51.509c-4.142 0-7.5 3.358-7.5 7.5s3.358 7.5 7.5 7.5h51.509c4.142 0 7.5-3.358 7.5-7.5s-3.358-7.5-7.5-7.5z" fill="#8c9eff"/><path d="m465.127 246.439h-20.604c-4.143 0-7.5 3.358-7.5 7.5s3.357 7.5 7.5 7.5h20.604c4.143 0 7.5-3.358 7.5-7.5s-3.357-7.5-7.5-7.5z" fill="#bdf9ff"/></svg>