<svg height="512pt" viewBox="0 0 512 512" width="512pt" xmlns="http://www.w3.org/2000/svg"><path d="m105.929688 264.828125c.070312 9.722656 7.933593 17.582031 17.65625 17.65625h335.449218c29.242188.019531 52.941406 23.722656 52.964844 52.964844-.042969 29.234375-23.730469 52.921875-52.964844 52.964843h-97.105468c-9.738282.027344-17.625 7.917969-17.652344 17.65625v79.445313h-35.3125v-79.445313c.023437-29.242187 23.722656-52.945312 52.964844-52.96875h97.105468c9.738282-.027343 17.625-7.914062 17.65625-17.652343-.074218-9.722657-7.9375-17.585938-17.65625-17.65625h-335.449218c-29.242188-.023438-52.941407-23.722657-52.964844-52.964844.042968-29.234375 23.730468-52.921875 52.964844-52.964844h335.449218c9.738282-.03125 17.625-7.917969 17.65625-17.65625-.074218-9.722656-7.9375-17.585937-17.65625-17.65625h-335.449218c-29.242188-.023437-52.941407-23.722656-52.964844-52.964843.042968-29.234376 23.730468-52.921876 52.964844-52.964844h335.449218c9.738282-.027344 17.625-7.917969 17.65625-17.65625-.074218-9.71875-7.9375-17.582032-17.65625-17.65625h-406.070312c-9.738282.03125-17.625 7.917968-17.65625 17.65625v282.484375c.03125 9.738281 7.917968 17.625 17.65625 17.652343h105.933594c29.242187.023438 52.941406 23.726563 52.964843 52.96875v79.445313h-35.3125v-79.445313c-.027343-9.738281-7.914062-17.628906-17.652343-17.65625h-105.933594c-29.242188-.023437-52.9414065-23.722656-52.964844-52.964843v-282.484375c.0234375-29.242188 23.722656-52.9414065 52.964844-52.964844h406.070312c29.25 0 52.964844 23.714844 52.964844 52.964844 0 29.253906-23.714844 52.964844-52.964844 52.964844h-335.449218c-9.738282.03125-17.625 7.917968-17.65625 17.65625.070312 9.722656 7.933593 17.585937 17.65625 17.65625h335.449218c29.242188.023437 52.941406 23.722656 52.964844 52.964843-.042969 29.234375-23.730469 52.921875-52.964844 52.964844h-335.449218c-9.738282.027344-17.625 7.917969-17.65625 17.65625zm0 0" fill="#e64c3c"/><g fill="#95a5a5"><path d="m167.722656 467.863281h52.96875c9.75 0 17.652344 7.902344 17.652344 17.652344v8.828125c0 9.75-7.902344 17.65625-17.652344 17.65625h-52.96875c-9.75 0-17.652344-7.90625-17.652344-17.65625v-8.828125c0-9.75 7.902344-17.652344 17.652344-17.652344zm0 0"/><path d="m300.136719 467.863281h52.964843c9.753907 0 17.65625 7.902344 17.65625 17.652344v8.828125c0 9.75-7.902343 17.65625-17.65625 17.65625h-52.964843c-9.75 0-17.652344-7.90625-17.652344-17.65625v-8.828125c0-9.75 7.902344-17.652344 17.652344-17.652344zm0 0"/></g></svg>