<svg height="512pt" viewBox="0 0 512 512" width="512pt" xmlns="http://www.w3.org/2000/svg"><path d="m0 288h288v224h-288zm0 0" fill="#c59969"/><path d="m224 288h64v224h-64zm0 0" fill="#ba8a5a"/><path d="m480 512h-192c-17.679688 0-32-14.320312-32-32v-448c0-17.679688 14.320312-32 32-32h192c17.679688 0 32 14.320312 32 32v448c0 17.679688-14.320312 32-32 32zm0 0" fill="#ffcb5a"/><path d="m256 192h256v32h-256zm0 0" fill="#fba61f"/><path d="m224 160h-192v-54.625l32-32v-73.375h128v73.375l32 32zm0 0" fill="#b0b4b9"/><path d="m160 384h-64c-8.832031 0-16-7.167969-16-16s7.167969-16 16-16h64c8.832031 0 16 7.167969 16 16s-7.167969 16-16 16zm0 0" fill="#57565c"/><path d="m304 352c-8.832031 0-16-7.167969-16-16v-64c0-8.832031 7.167969-16 16-16s16 7.167969 16 16v64c0 8.832031-7.167969 16-16 16zm0 0" fill="#fff"/><g fill="#e76e54"><path d="m32 192h32v32h-32zm0 0"/><path d="m112 192h32v32h-32zm0 0"/><path d="m192 192h32v32h-32zm0 0"/></g><path d="m304 128c-8.832031 0-16-7.167969-16-16v-32c0-8.832031 7.167969-16 16-16s16 7.167969 16 16v32c0 8.832031-7.167969 16-16 16zm0 0" fill="#fff"/><path d="m32 128h192v32h-192zm0 0" fill="#9da2a5"/></svg>