<svg height="512pt" viewBox="0 0 512 512.00014" width="512pt" xmlns="http://www.w3.org/2000/svg"><path d="m98.921875 458.136719c-61.171875-47.605469-100.179687-122.351563-98.890625-206.164063 1.4375-93.617187 53.703125-175.40625 129.96875-218.851562 9.640625-5.492188 19.65625-10.296875 30-14.492188 29.753906-12.074218 62.214844-18.6640622 96.265625-18.628906 33.855469.0351562 66.167969 6.652344 95.734375 18.628906 10.351562 4.191406 20.371094 9.039063 30 14.492188 77.617188 43.972656 130 127.300781 130 222.878906 0 63.734375-23.304688 122.019531-61.839844 166.828125-1.191406 1.386719-2.9375 2.171875-4.765625 2.171875h-22.75c-65.746093 0-127.757812 30.761719-169.816406 83.363281-1.824219 2.28125-4.640625 3.53125-7.5625 3.410157-11.03125-.457032-21.882813-1.613282-32.511719-3.421876-2.132812-.363281-4.089844-1.449218-5.519531-3.074218-23.011719-26.105469-55.695313-42.707032-91.488281-45.160156l-14.164063-.96875c-.96875-.066407-1.894531-.417969-2.660156-1.011719zm0 0" fill="#f7c12c"/><path d="m450.160156 422.839844c-46.945312 54.585937-116.511718 89.160156-194.160156 89.160156-3.382812 0-6.746094-.085938-10.097656-.214844l121.097656-283.929687zm-351.273437 35.277344c32.515625 25.3125 71.300781 42.945312 113.632812 50.1875l-67.519531-158.304688zm0 0" fill="#faefd0"/><path d="m170 400c0 22.089844-11.191406 40-25 40s-25-17.910156-25-40 11.191406-40 25-40 25 17.910156 25 40zm198-170c-13.808594 0-25 17.910156-25 40s11.191406 40 25 40 25-17.910156 25-40-11.191406-40-25-40zm0 0" fill="#fff5f5"/><path d="m170 210v50c0 5.523438-4.476562 10-10 10h-30c-5.523438 0-10-4.476562-10-10v-50c0-5.523438 4.476562-10 10-10v-166.878906c9.628906-5.457032 19.644531-10.300782 30-14.492188v181.371094c5.523438 0 10 4.476562 10 10zm212-140v-36.878906c-9.628906-5.457032-19.644531-10.300782-30-14.492188v51.371094c-5.523438 0-10 4.476562-10 10v50c0 5.523438 4.476562 10 10 10h30c5.523438 0 10-4.476562 10-10v-50c0-5.523438-4.476562-10-10-10zm0 0" fill="#f72c2c"/><path d="m382 33.121094v9.09375c0 3.835937-2.753906 7.265625-6.5625 7.726562-4.558594.554688-8.4375-2.992187-8.4375-7.441406v-17.25c5.097656 2.457031 10.097656 5.09375 15 7.871094zm-237 139.378906c0 4.449219 3.878906 7.996094 8.4375 7.441406 3.808594-.460937 6.5625-3.890625 6.5625-7.726562v-153.585938c-5.078125 2.054688-10.089844 4.253906-15 6.621094zm0 0" fill="#fd5757"/><path d="m271 400c0 5.523438-4.476562 10-10 10h-232c-5.523438 0-10-4.476562-10-10 0-43.769531 23.4375-82.0625 58.445312-103.019531 13.460938-8.0625 21.554688-22.738281 21.554688-38.425781v-8.554688c0-11.046875 8.953125-20 20-20h52c11.046875 0 20 8.953125 20 20v8.554688c0 15.6875 8.09375 30.367187 21.554688 38.425781 35.007812 20.957031 58.445312 59.25 58.445312 103.019531zm163.554688-233.019531c-13.460938-8.0625-21.554688-22.738281-21.554688-38.425781v-8.554688c0-11.046875-8.953125-20-20-20h-52c-11.046875 0-20 8.953125-20 20v8.554688c0 15.6875-8.09375 30.367187-21.554688 38.425781-35.007812 20.957031-58.445312 59.25-58.445312 103.019531 0 5.523438 4.476562 10 10 10h232c5.523438 0 10-4.476562 10-10 0-43.769531-23.4375-82.0625-58.445312-103.019531zm0 0" fill="#1a4d59"/><path d="m270.574219 390h-115.574219c-35.898438 0-65-29.101562-65-65 0-.039062 0-.082031 0-.125.027344-14.976562 8.8125-28.605469 22.511719-34.667969 14.828125-6.5625 31.230469-10.207031 48.488281-10.207031h12c8.542969 0 16.875.898438 24.910156 2.59375 3.636719 5.792969 8.59375 10.761719 14.644532 14.382812 32.3125 19.347657 54.753906 53.464844 58.019531 93.023438zm-130.574219-120h30.546875c10.425781 0 19.457031-7.796875 20.371094-18.183594 1.050781-11.863281-8.273438-21.816406-19.917969-21.816406h-30.546875c-10.425781 0-19.457031 7.796875-20.371094 18.183594-1.050781 11.863281 8.273438 21.816406 19.917969 21.816406zm294.554688-103.019531c-6.050782-3.625-11.007813-8.59375-14.644532-14.382813-8.035156-1.699218-16.367187-2.597656-24.910156-2.597656h-12c-17.257812 0-33.660156 3.644531-48.488281 10.207031-13.699219 6.0625-22.484375 19.691407-22.511719 34.667969v.125c0 35.898438 29.101562 65 65 65h115.574219c-3.265625-39.558594-25.707031-73.675781-58.019531-93.019531zm-72.554688-26.980469h30.546875c10.425781 0 19.457031-7.796875 20.371094-18.183594 1.050781-11.863281-8.273438-21.816406-19.917969-21.816406h-30.546875c-10.425781 0-19.457031 7.796875-20.371094 18.183594-1.050781 11.863281 8.273438 21.816406 19.917969 21.816406zm0 0" fill="#2e7487"/></svg>