<?xml version="1.0" encoding="iso-8859-1"?>
<!-- Generator: Adobe Illustrator 19.0.0, SVG Export Plug-In . SVG Version: 6.00 Build 0)  -->
<svg xmlns="http://www.w3.org/2000/svg" xmlns:xlink="http://www.w3.org/1999/xlink" version="1.1" id="Layer_1" x="0px" y="0px" viewBox="0 0 496.26 496.26" style="enable-background:new 0 0 496.26 496.26;" xml:space="preserve" width="512" height="512">
<g>
	<path style="fill:#6AA5D5;" d="M266.29,225.09l-12.33,53.21l108.88,108.87c8.99,8.99,8.99,23.57,0,32.56c-9,9-23.58,9-32.57,0   l-82.14-82.14l-8.26-8.26L230,369.48c-3.3,13.43-17.57,20.87-30.41,16.07l-66.78-24.93c-11.91-4.44-17.96-17.71-13.51-29.62   c4.44-11.92,17.71-17.97,29.62-13.52l42.54,15.88l32.73-127.2h-33.23l-38.76,38.76c-8.99,8.99-23.57,8.99-32.57,0   c-8.99-8.99-8.99-23.57,0-32.57l45.51-45.5c4.32-4.32,10.18-6.75,16.28-6.75h57.4c-5.99-7.79-9.57-17.53-9.57-28.12   c0-15.29,7.43-28.84,18.88-37.24c7.65-5.62,17.09-8.94,27.31-8.94c25.5,0,46.18,20.67,46.18,46.18c0,22.62-16.27,41.43-37.74,45.4   l-0.05,0.13l31.37,31.36h44.9c12.72,0,23.03,10.31,23.03,23.03s-10.31,23.02-23.03,23.02h-54.44c-6.11,0-11.96-2.42-16.28-6.74   L266.29,225.09z"/>
	<path style="fill:#4B90BF;" d="M266.29,225.09l-12.33,53.21l108.88,108.87c8.99,8.99,8.99,23.57,0,32.56c-9,9-23.58,9-32.57,0   l-82.14-82.14V94.74c7.65-5.62,17.09-8.94,27.31-8.94c25.5,0,46.18,20.67,46.18,46.18c0,22.62-16.27,41.43-37.74,45.4l-0.05,0.13   l31.37,31.36h44.9c12.72,0,23.03,10.31,23.03,23.03s-10.31,23.02-23.03,23.02h-54.44c-6.11,0-11.96-2.42-16.28-6.74L266.29,225.09z   "/>
	<path style="fill:#FFE6B9;" d="M431.614,187.706c-5.857-5.857-15.355-5.857-21.213,0c-5.858,5.857-5.858,15.355,0,21.213   c13.358,13.358,13.358,35.095,0,48.454c-5.858,5.858-5.857,15.355,0,21.213c5.856,5.858,15.354,5.859,21.213,0   C456.67,253.529,456.67,212.761,431.614,187.706z"/>
	<path style="fill:#FFCD76;" d="M467.973,164.912c-5.857-5.859-15.355-5.857-21.213,0c-5.858,5.858-5.858,15.355,0,21.213   c25.988,25.988,25.99,68.05,0,94.042c-5.858,5.857-5.858,15.355,0,21.213c5.858,5.858,15.355,5.858,21.213,0   C505.686,263.669,505.691,202.627,467.973,164.912z"/>
	<path style="fill:#FFCD76;" d="M85.859,187.706c-5.858-5.858-15.355-5.858-21.213,0c-25.115,25.113-25.117,65.763,0,90.88   c5.858,5.858,15.355,5.858,21.213,0c5.858-5.857,5.858-15.355,0-21.213c-13.39-13.391-13.391-35.062,0-48.454   C91.717,203.061,91.717,193.564,85.859,187.706z"/>
	<path style="fill:#FFE6B9;" d="M49.499,186.125c5.858-5.857,5.858-15.355,0-21.213c-5.858-5.858-15.355-5.858-21.213,0   c-37.713,37.712-37.716,98.752,0,136.468c5.856,5.857,15.354,5.859,21.213,0c5.858-5.857,5.858-15.355,0-21.213   C23.511,254.179,23.508,212.116,49.499,186.125z"/>
	<path style="fill:#2880BD;" d="M93.034,0.224H15.688c-8.284,0-15,6.716-15,15v77.346c0,8.284,6.716,15,15,15s15-6.716,15-15V30.224   h62.346c8.284,0,15-6.716,15-15S101.318,0.224,93.034,0.224z"/>
	<path style="fill:#0D4D73;" d="M480.571,0.224h-77.346c-8.284,0-15,6.716-15,15s6.716,15,15,15h62.346v62.346   c0,8.284,6.716,15,15,15s15-6.716,15-15V15.224C495.571,6.939,488.855,0.224,480.571,0.224z"/>
	<path style="fill:#0D4D73;" d="M480.571,388.69c-8.284,0-15,6.716-15,15v62.346h-62.346c-8.284,0-15,6.716-15,15s6.716,15,15,15   h77.346c8.284,0,15-6.716,15-15V403.69C495.571,395.406,488.855,388.69,480.571,388.69z"/>
	<path style="fill:#2880BD;" d="M93.034,466.036H30.688V403.69c0-8.284-6.716-15-15-15s-15,6.716-15,15v77.346   c0,8.284,6.716,15,15,15h77.346c8.284,0,15-6.716,15-15S101.318,466.036,93.034,466.036z"/>
</g>















</svg>
