<svg id="Capa_1" enable-background="new 0 0 497 497" height="512" viewBox="0 0 497 497" width="512" xmlns="http://www.w3.org/2000/svg"><path d="m439.146 369.764h-387.292c-13.238 0-23.969-10.731-23.969-23.969v-46.886h435.23v46.886c0 13.238-10.731 23.969-23.969 23.969z" fill="#5a5a5a"/><path d="m245.5 157.033h236.748c8.147 0 14.752 6.605 14.752 14.752v49.624l-10 43.361 10 43.361v16.453c0 8.147-6.605 14.752-14.752 14.752h-467.496c-8.147.001-14.752-6.604-14.752-14.751v-152.8c0-8.147 6.605-14.752 14.752-14.752h46.873" fill="#dcdcdc"/><path d="m482.248 157.033h-30c8.147 0 14.752 6.605 14.752 14.752v152.8c0 8.147-6.605 14.752-14.752 14.752h30c8.147 0 14.752-6.605 14.752-14.752v-16.453l-10-43.361 10-43.361v-49.624c0-8.149-6.605-14.753-14.752-14.753z" fill="#bfbfbf"/><path d="m61.625 157.033h183.875" fill="#dcdcdc"/><circle cx="153.938" cy="248.185" fill="#838383" r="120.949"/><circle cx="153.938" cy="248.185" fill="#5a5a5a" r="92.313"/><circle cx="153.938" cy="248.185" fill="#d8ecfe" r="61.214"/><path d="m153.938 186.971c-5.176 0-10.199.649-15 1.858 26.555 6.69 46.214 30.724 46.214 59.356 0 28.631-19.659 52.665-46.214 59.355 4.801 1.209 9.824 1.858 15 1.858 33.807 0 61.214-27.406 61.214-61.214 0-33.807-27.406-61.213-61.214-61.213z" fill="#b3dafe"/><path d="m497 308.131h-142.649c-13.262 0-24.013-10.751-24.013-24.013v-38.697c0-13.262 10.751-24.013 24.013-24.013h142.649" fill="#9c9c9c"/><g fill="#5a5a5a"><circle cx="366.565" cy="191.992" r="7.5"/><circle cx="405.098" cy="191.992" r="7.5"/><circle cx="443.63" cy="191.992" r="7.5"/><path d="m474 259.751h-116.421c-4.142 0-7.5-3.358-7.5-7.5s3.358-7.5 7.5-7.5h116.421c4.142 0 7.5 3.358 7.5 7.5s-3.358 7.5-7.5 7.5z"/><path d="m474 284.881h-116.421c-4.142 0-7.5-3.358-7.5-7.5s3.358-7.5 7.5-7.5h116.421c4.142 0 7.5 3.358 7.5 7.5s-3.358 7.5-7.5 7.5z"/></g></svg>