<?xml version="1.0" encoding="iso-8859-1"?>
<!-- Generator: Adobe Illustrator 19.0.0, SVG Export Plug-In . SVG Version: 6.00 Build 0)  -->
<svg xmlns="http://www.w3.org/2000/svg" xmlns:xlink="http://www.w3.org/1999/xlink" version="1.1" id="Capa_1" x="0px" y="0px" viewBox="0 0 470 470" style="enable-background:new 0 0 470 470;" xml:space="preserve" width="512" height="512">
<g>
	<rect x="227.5" y="369" style="fill:#6DA8D6;" width="15" height="53.5"/>
	<path style="fill:#98D9D5;" d="M235,470c-15.163,0-27.5-12.336-27.5-27.5S219.837,415,235,415s27.5,12.336,27.5,27.5   S250.163,470,235,470z M235,430c-6.893,0-12.5,5.607-12.5,12.5S228.107,455,235,455s12.5-5.607,12.5-12.5S241.893,430,235,430z"/>
	<rect x="27.5" y="87.5" style="fill:#F2EBD9;" width="415" height="281.5"/>
	<circle style="fill:#FFCC75;" cx="386.8" cy="286.5" r="7.5"/>
	<circle style="fill:#FFCC75;" cx="356.8" cy="316.5" r="7.5"/>
	<path style="fill:#274B6D;" d="M455,376.5H15c-4.143,0-7.5-3.358-7.5-7.5s3.357-7.5,7.5-7.5h440c4.143,0,7.5,3.358,7.5,7.5   S459.143,376.5,455,376.5z"/>
	<path style="fill:#274B6D;" d="M35,0c-4.143,0-7.5,3.358-7.5,7.5v40h15v-40C42.5,3.358,39.143,0,35,0z"/>
	<path style="fill:#274B6D;" d="M435,0c-4.143,0-7.5,3.358-7.5,7.5v40h15v-40C442.5,3.358,439.143,0,435,0z"/>
	<rect x="7.5" y="37.5" style="fill:#98D9D5;" width="455" height="50"/>
</g>















</svg>
