<svg id="Capa_1" enable-background="new 0 0 512 512" height="512" viewBox="0 0 512 512" width="512" xmlns="http://www.w3.org/2000/svg"><g><g id="Router_Device_2_"><g><path d="m61 447.558h30v59.59h-30z" fill="#4d5e80"/></g><g><g><path d="m421 447.558h30v59.59h-30z" fill="#3d4566"/></g></g><g><path d="m241 117.147h30v240h-30z" fill="#4d5e80"/></g><path d="m256 117.147h15v240h-15z" fill="#3d4566"/><g><path d="m512 477.147h-512v-150h512z" fill="#ecf2ff"/></g><path d="m256 327.147h256v150h-256z" fill="#d9e5ff"/><g><path d="m421 387.147h30v30h-30z" fill="#00bf9f"/></g><g><path d="m361 387.147h30v30h-30z" fill="#00bf9f"/></g><g><path d="m301 387.147h30v30h-30z" fill="#00bf9f"/></g><g><path d="m61 387.147h30v30h-30z" fill="#2de6a8"/></g><g><path d="m192.367 216.962-10.605-10.605c-41.051-41.02-41.044-107.404 0-148.447l10.605-10.605 21.211 21.211-10.605 10.604c-29.239 29.208-29.402 76.654 0 106.025l10.605 10.591z" fill="#2de6a8"/></g><g><path d="m149.975 259.413-10.635-10.591c-64.372-64.281-64.635-168.699 0-233.364l10.605-10.605 21.211 21.211-10.605 10.605c-52.109 52.109-53.373 137.663 0 190.913l10.605 10.605z" fill="#2de6a8"/></g><g><path d="m319.633 216.991-21.211-21.211 10.605-10.605c29.239-29.208 29.402-76.654 0-106.025l-10.605-10.591 21.211-21.226 10.605 10.605c41.051 41.02 41.044 107.404 0 148.447z" fill="#00bf9f"/></g><g><path d="m362.055 259.442-21.211-21.211 10.605-10.605c52.109-52.109 53.373-137.663 0-190.913l-10.605-10.605 21.182-21.226 10.635 10.591c64.372 64.281 64.635 168.699 0 233.364z" fill="#00bf9f"/></g><g><path d="m192.367 217.006-10.605-10.606c-41.049-41.079-41.044-107.432 0-148.506l10.605-10.605 21.211 21.196-10.605 10.62c-29.295 29.295-29.343 76.741 0 106.084l10.605 10.62z" fill="#2de6a8"/></g><g><path d="m319.633 217.006-21.211-21.196 10.605-10.62c29.295-29.295 29.343-76.741 0-106.084l-10.605-10.62 21.211-21.196 10.605 10.605c41.049 41.079 41.044 107.432 0 148.506z" fill="#00bf9f"/></g></g><g id="Router_Device_1_"><g><path d="m421 387.147h30v30h-30z" fill="#00bf9f"/></g><g><path d="m361 387.147h30v30h-30z" fill="#00bf9f"/></g><g><path d="m301 387.147h30v30h-30z" fill="#00bf9f"/></g><g><path d="m192.367 216.962-10.605-10.605c-41.051-41.02-41.044-107.404 0-148.447l10.605-10.605 21.211 21.211-10.605 10.604c-29.239 29.208-29.402 76.654 0 106.025l10.605 10.591z" fill="#2de6a8"/></g><g><path d="m319.633 216.991-21.211-21.211 10.605-10.605c29.239-29.208 29.402-76.654 0-106.025l-10.605-10.591 21.211-21.226 10.605 10.605c41.051 41.02 41.044 107.404 0 148.447z" fill="#00bf9f"/></g></g></g></svg>