<svg height="512pt" viewBox="-61 0 512 512" width="512pt" xmlns="http://www.w3.org/2000/svg"><path d="m390 312h-390v-312h390zm0 0" fill="#deecf1"/><path d="m195 0h195v312h-195zm0 0" fill="#c6e2e7"/><path d="m150 171h-90v-90h90zm0 0" fill="#ffcf87"/><path d="m330 292h-90v-91h90zm0 0" fill="#ffaf37"/><path d="m120 227h30v65h-30zm0 0" fill="#0095ff"/><path d="m60 207h30v85h-30zm0 0" fill="#f03800"/><path d="m300 75h30v81h-30zm0 0" fill="#0095ff"/><path d="m240 105h30v51h-30zm0 0" fill="#c92e01"/><path d="m0 141h390v30h-390zm0 0" fill="#a8d3d8"/><path d="m195 141h195v30h-195zm0 0" fill="#8ebac5"/><path d="m90 512h-90v-90h90zm0 0" fill="#00607f"/><path d="m390 512h-90v-90h90zm0 0" fill="#00465f"/><path d="m390 452h-390v-170h390zm0 0" fill="#00c0f1"/><path d="m195 282h195v170h-195zm0 0" fill="#00abe9"/><path d="m150 357c0 8.285156-6.714844 15-15 15s-15-6.714844-15-15 6.714844-15 15-15 15 6.714844 15 15zm0 0" fill="#ffcf87"/><path d="m270 357c0 8.285156-6.714844 15-15 15s-15-6.714844-15-15 6.714844-15 15-15 15 6.714844 15 15zm0 0" fill="#ffaf37"/></svg>