<svg height="512pt" viewBox="0 0 512.00025 512" width="512pt" xmlns="http://www.w3.org/2000/svg"><path d="m318.949219 76.414062h-210.160157c-12.390624 0-22.433593-10.046874-22.433593-22.433593 0-12.390625 10.042969-22.433594 22.433593-22.433594h210.160157c12.390625 0 22.433593 10.042969 22.433593 22.433594s-10.042968 22.433593-22.433593 22.433593zm0 0" fill="#ff3f62"/><path d="m251.867188 106.832031h-75.996094c-2.035156-2.035156-3.175782-3.175781-5.210938-5.210937v-25.207032h86.417969v25.207032c-2.035156 2.035156-3.175781 3.175781-5.210937 5.210937zm0 0" fill="#ff3f62"/><path d="m235.835938 31.546875h-43.933594v-15.730469l8.316406-8.316406h27.300781l8.316407 8.316406zm0 0" fill="#79787d"/><path d="m196.203125 106.832031h35.332031v33.996094h-35.332031zm0 0" fill="#79787d"/><path d="m354.574219 264.492188h-45.613281c-8.015626-24.808594-25.472657-45.378907-48.136719-57.464844v-33.363282h15.625l8.417969-8.417968v-24.417969h-141.996094v24.417969l8.417968 8.417968h15.621094v33.367188c-18.21875 9.71875-33.074218 24.914062-42.359375 43.390625h-88.800781v-10.019531c-2.578125-1.929688-4.023438-3.011719-6.601562-4.945313h-21.648438v119.398438h21.648438c2.578124-1.933594 4.023437-3.015625 6.601562-4.945313v-10.019531h88.710938c16.398437 32.765625 50.273437 55.265625 89.410156 55.265625 44.449218 0 82.121094-29.027344 95.089844-69.164062h42.363281c7.085937 0 12.832031 5.746093 12.832031 12.832031v38.960937h61.5v-42.210937c0-39.257813-31.824219-71.082031-71.082031-71.082031zm0 0" fill="#e0e0e2"/><path d="m394.859375 504.488281c20.664063 0 37.417969-16.753906 37.417969-37.417969 0-20.667968-37.417969-62.117187-37.417969-62.117187s-37.417969 41.449219-37.417969 62.117187c-.003906 20.664063 16.75 37.417969 37.417969 37.417969zm0 0" fill="#bddbff"/><path d="m412.050781 63.425781-70.300781 121.765625c-4.5625 7.902344 1.140625 17.777344 10.261719 17.777344h140.605469c9.125 0 14.828124-9.875 10.265624-17.777344l-70.304687-121.765625c-4.5625-7.902343-15.964844-7.902343-20.527344 0zm0 0" fill="#ffb655"/><path d="m116.355469 53.980469c0-12.390625 10.042969-22.433594 22.433593-22.433594h-30c-12.390624 0-22.433593 10.042969-22.433593 22.433594s10.042969 22.433593 22.433593 22.433593h30c-12.390624 0-22.433593-10.042968-22.433593-22.433593zm0 0" fill="#c70024"/><path d="m200.660156 101.621094v-25.207032h-29.996094v25.207032c2.035157 2.035156 3.171876 3.171875 5.207032 5.207031h30c-2.035156-2.03125-3.175782-3.171875-5.210938-5.207031zm0 0" fill="#c70024"/><path d="m228.871094 8.851562-1.351563-1.351562h-27.300781l-8.316406 8.316406v15.730469h30v-15.730469zm0 0" fill="#575759"/><path d="m196.203125 106.832031h20v33.996094h-20zm0 0" fill="#575759"/><g fill="#acabb1"><path d="m37.5 250.421875h-1.75v-10.019531c-2.578125-1.929688-4.023438-3.011719-6.601562-4.945313h-21.648438v119.394531h21.648438c2.578124-1.929687 4.023437-3.011718 6.601562-4.945312v-10.019531h1.75zm0 0"/><path d="m196.910156 207.03125v-33.367188h-15.621094l-8.417968-8.417968v-24.417969h-30v24.417969l8.417968 8.417968h15.621094v33.367188c-18.21875 9.71875-33.074218 24.914062-42.359375 43.390625h29.996094c9.289063-18.476563 24.144531-33.675781 42.363281-43.390625zm0 0"/><path d="m154.460938 339.886719h-30c16.398437 32.769531 50.273437 55.269531 89.410156 55.269531 5.089844 0 10.082031-.398438 14.96875-1.132812-32.652344-4.925782-60.125-25.644532-74.378906-54.136719zm0 0"/></g><path d="m387.4375 467.066406c0-11.703125 12.007812-30.082031 22.417969-43.8125-7.964844-10.511718-15-18.304687-15-18.304687s-37.417969 41.453125-37.417969 62.117187c0 20.667969 16.753906 37.417969 37.417969 37.417969 5.335937 0 10.410156-1.121094 15-3.136719-13.195313-5.78125-22.417969-18.949218-22.417969-34.28125zm0 0" fill="#57a4ff"/><path d="m371.746094 185.191406 65.570312-113.566406-4.738281-8.199219c-4.558594-7.902343-15.964844-7.902343-20.527344 0l-70.300781 121.765625c-4.5625 7.902344 1.136719 17.78125 10.261719 17.78125h30c-9.125-.003906-14.824219-9.878906-10.265625-17.78125zm0 0" fill="#ff8243"/><path d="m108.789062 83.914062h54.375v20.8125l9.601563 9.605469h15.9375v8.496094h15v-8.496094h20.335937v8.496094h14.996094v-8.496094h15.9375l9.605469-9.605469v-20.8125h54.375c16.503906 0 29.933594-13.429687 29.933594-29.933593 0-16.507813-13.429688-29.933594-29.933594-29.933594h-75.617187v-11.339844l-12.710938-12.707031h-33.511719l-12.710937 12.707031v11.339844h-75.613282c-16.507812 0-29.933593 13.425781-29.933593 29.933594 0 16.503906 13.425781 29.933593 29.933593 29.933593zm140.789063 14.601563-.816406.816406h-69.78125l-.816407-.816406v-14.601563h71.414063zm-50.175781-79.59375 3.925781-3.921875h21.085937l3.921876 3.921875v5.125h-28.933594zm-90.613282 20.125h210.160157c8.234375 0 14.933593 6.699219 14.933593 14.933594s-6.695312 14.933593-14.933593 14.933593h-210.160157c-8.234374 0-14.933593-6.699218-14.933593-14.933593s6.699219-14.933594 14.933593-14.933594zm0 0"/><path d="m356.65625 338.824219v46.460937h76.5v-49.710937c0-43.328125-35.25-78.582031-78.582031-78.582031h-40.300781c-8.6875-22.875-24.777344-41.914063-45.949219-54.359376v-21.46875h11.234375l12.808594-12.8125v-35.023437h-156.996094v35.023437l12.8125 12.808594h11.226562v21.476563c-16.542968 9.726562-30.03125 23.53125-39.371094 40.285156h-76.789062v-6.269531l-11.601562-8.695313h-31.648438v134.394531h31.648438l11.601562-8.691406v-6.273437h38.105469v-14.996094h-53.105469v13.765625l-1.597656 1.195312h-11.652344v-104.394531h11.652344l1.597656 1.199219v58.878906h15v-45.113281h85.921875l2.078125-4.132813c8.523438-16.949218 22.441406-31.207031 39.191406-40.144531l3.96875-2.117187v-45.367188h-20.015625l-4.023437-4.023437v-13.808594h126.996094v13.808594l-4.023438 4.023437h-72.472656v15h52.453125v30.363282l3.96875 2.121093c21.007812 11.203125 37.238281 30.578125 44.535156 53.152344l1.675781 5.195313h51.070313c35.058593 0 63.582031 28.523437 63.582031 63.582031v34.710937h-46.5v-31.460937c0-11.210938-9.121094-20.332031-20.332031-20.332031h-47.820313l-1.675781 5.195312c-12.367187 38.261719-47.714844 63.96875-87.957031 63.96875-35.234375 0-66.925782-19.589844-82.703125-51.121094l-2.070313-4.144531h-27.742187v15h18.585937c18.972656 34.207031 54.546875 55.265625 93.929688 55.265625 44.929687 0 84.605468-27.570312 100.40625-69.164062h37.046875c2.941406 0 5.332031 2.390624 5.332031 5.332031zm0 0"/><path d="m394.859375 393.757812-5.566406 6.167969c-4.027344 4.460938-39.355469 44.253907-39.355469 67.140625 0 24.769532 20.152344 44.917969 44.921875 44.917969 24.765625 0 44.917969-20.148437 44.917969-44.917969 0-22.886718-35.324219-62.679687-39.351563-67.140625zm0 103.230469c-16.5 0-29.921875-13.421875-29.921875-29.917969 0-11.289062 16.582031-34.777343 29.921875-50.683593 13.339844 15.898437 29.917969 39.378906 29.917969 50.683593 0 16.496094-13.421875 29.917969-29.917969 29.917969zm0 0"/><path d="m509.378906 181.441406-70.304687-121.765625c-3.496094-6.058593-9.761719-9.675781-16.757813-9.675781s-13.265625 3.617188-16.761718 9.675781l-70.300782 121.765625c-3.5 6.058594-3.5 13.292969 0 19.351563 3.496094 6.0625 9.761719 9.679687 16.757813 9.679687h140.605469c6.992187 0 13.261718-3.617187 16.757812-9.675781 3.5-6.0625 3.5-13.296875.003906-19.355469zm-12.992187 11.851563c-.378907.65625-1.503907 2.175781-3.769531 2.175781h-140.605469c-2.269531 0-3.390625-1.519531-3.769531-2.175781-.378907-.652344-1.132813-2.386719 0-4.351563l70.300781-121.769531c1.136719-1.960937 3.015625-2.175781 3.773437-2.175781.753906 0 2.636719.214844 3.769532 2.175781l70.300781 121.769531c1.132812 1.964844.375 3.699219 0 4.351563zm0 0"/><path d="m414.816406 101.398438h14.996094v56.742187h-14.996094zm0 0"/><path d="m414.816406 168.140625h14.996094v14.996094h-14.996094zm0 0"/><path d="m313.992188 61.480469h-45.332032v-15h45.332032zm-55.332032 0h-15v-15h15zm-25 0h-15v-15h15zm0 0" fill="#fff"/><path d="m213.871094 377.65625v-15c20.730468 0 40.023437-9.371094 52.929687-25.714844l11.769531 9.296875c-15.765624 19.964844-39.347656 31.417969-64.699218 31.417969zm70.925781-40.476562-12.898437-7.648438c2.292968-3.871094 4.203124-7.980469 5.675781-12.214844l14.167969 4.925782c-1.800782 5.179687-4.136719 10.207031-6.945313 14.9375zm9.851563-25.554688-14.703126-2.976562c.890626-4.382813 1.339844-8.894532 1.339844-13.40625h15c0 5.511718-.550781 11.023437-1.636718 16.382812zm0 0" fill="#fff"/><path d="m408.15625 352.785156h-15v-17.210937c0-6.269531-1.542969-12.492188-4.464844-18l13.253906-7.027344c4.0625 7.664063 6.210938 16.320313 6.210938 25.027344zm-24.152344-42.132812c-2.730468-3.210938-5.933594-5.945313-9.53125-8.121094l7.769532-12.832031c4.980468 3.015625 9.421874 6.800781 13.199218 11.25zm-17.097656-11.640625c-3.960938-1.339844-8.109375-2.019531-12.332031-2.019531v-15c5.859375 0 11.625.945312 17.136719 2.8125zm0 0" fill="#fff"/></svg>