<?xml version="1.0" encoding="iso-8859-1"?>
<!-- Generator: Adobe Illustrator 19.0.0, SVG Export Plug-In . SVG Version: 6.00 Build 0)  -->
<svg version="1.1" id="Capa_1" xmlns="http://www.w3.org/2000/svg" xmlns:xlink="http://www.w3.org/1999/xlink" x="0px" y="0px"
	 viewBox="0 0 512.001 512.001" style="enable-background:new 0 0 512.001 512.001;" xml:space="preserve">
<path style="fill:#A4D9F5;" d="M361.207,315.551h-210c-24.902,0-45,20.099-45,45v30c0,8.399,6.599,15,15,15h270
	c8.401,0,15-6.601,15-15v-30C406.207,335.651,386.109,315.551,361.207,315.551z"/>
<g>
	<path style="fill:#1BD9DE;" d="M483.159,308.066c-6.768-16.025-16.494-30.469-28.945-42.92
		c-12.422-12.407-26.895-22.163-42.949-28.975c-7.617-3.237-11.191-12.041-7.939-19.673c3.223-7.646,12.1-11.133,19.658-7.954
		c19.629,8.32,37.266,20.229,52.441,35.391c15.205,15.205,27.1,32.842,35.391,52.441c3.223,7.632-0.352,16.436-7.998,19.658
		C495.181,319.265,486.386,315.667,483.159,308.066z"/>
	<path style="fill:#1BD9DE;" d="M427.875,331.386c-3.75-8.877-9.141-16.904-16.084-23.833c-6.885-6.899-14.912-12.319-23.848-16.099
		c-7.617-3.237-11.191-12.041-7.939-19.658c3.223-7.646,12.1-11.177,19.658-7.969c12.51,5.303,23.73,12.876,33.34,22.529
		c9.697,9.668,17.256,20.903,22.529,33.369c3.223,7.632-0.352,16.436-7.998,19.658C439.809,342.593,431.104,338.992,427.875,331.386
		z"/>
</g>
<g>
	<path style="fill:#1DE8F1;" d="M9.183,316.035c-7.646-3.223-11.221-12.026-7.998-19.658c8.291-19.6,20.186-37.236,35.391-52.441
		c15.176-15.161,32.812-27.07,52.441-35.391c7.588-3.179,16.465,0.308,19.658,7.954c3.252,7.632-0.322,16.436-7.939,19.673
		c-16.055,6.812-30.527,16.567-42.949,28.975c-12.451,12.451-22.178,26.895-28.945,42.92
		C25.612,315.652,16.839,319.274,9.183,316.035z"/>
	<path style="fill:#1DE8F1;" d="M64.466,339.384c-7.646-3.223-11.221-12.026-7.998-19.658c5.273-12.466,12.832-23.701,22.529-33.384
		c9.609-9.639,20.83-17.212,33.34-22.515c7.588-3.208,16.436,0.322,19.658,7.969c3.252,7.617-0.322,16.421-7.939,19.658
		c-8.936,3.779-16.963,9.199-23.848,16.084c-6.943,6.943-12.334,14.971-16.084,23.848C80.936,338.896,72.258,342.621,64.466,339.384
		z"/>
</g>
<path style="fill:#17ACE8;" d="M324.908,180.551l-54.902-126c-2.399-5.4-8.101-8.101-13.799-8.101s-11.4,2.701-13.799,8.101
	l-54.902,126c-4.197,9.6-6.299,19.799-6.299,30c0,41.4,33.6,75,75,75s75-33.6,75-75
	C331.207,200.351,329.105,190.152,324.908,180.551z"/>
<path style="fill:#1689FC;" d="M256.207,285.551v-239.1c5.698,0,11.4,2.701,13.799,8.101l54.902,126
	c4.197,9.6,6.299,19.799,6.299,30C331.207,251.952,297.607,285.551,256.207,285.551z"/>
<path style="fill:#81C8EE;" d="M391.207,405.551h-135v-90h105c24.902,0,45,20.099,45,45v30
	C406.207,398.951,399.608,405.551,391.207,405.551z"/>
<path style="fill:#CAE8F9;" d="M464.705,443.951l-21.899-43.5c-7.5-15.298-23.101-24.899-40.199-24.899h-292.8
	c-17.098,0-32.699,9.6-40.199,24.899l-21.899,43.5c-4.801,9.901,2.399,21.601,13.499,21.601h390
	C462.306,465.551,469.506,453.851,464.705,443.951z"/>
<path style="fill:#B7E0F6;" d="M451.207,465.551h-195v-90h146.4c17.098,0,32.699,9.6,40.199,24.899l21.899,43.5
	C469.506,453.851,462.306,465.551,451.207,465.551z"/>
<path style="fill:#787780;" d="M512,450.551c0,8.399-6.599,15-15,15H15c-8.401,0-15-6.601-15-15c0-8.401,6.599-15,15-15h482
	C505.401,435.551,512,442.151,512,450.551z"/>
<path style="fill:#57555C;" d="M512,450.551c0,8.399-6.599,15-15,15H256.207v-30H497C505.401,435.551,512,442.151,512,450.551z"/>
<g>
</g>
<g>
</g>
<g>
</g>
<g>
</g>
<g>
</g>
<g>
</g>
<g>
</g>
<g>
</g>
<g>
</g>
<g>
</g>
<g>
</g>
<g>
</g>
<g>
</g>
<g>
</g>
<g>
</g>
</svg>
