<?xml version="1.0" encoding="iso-8859-1"?>
<!-- Generator: Adobe Illustrator 19.0.0, SVG Export Plug-In . SVG Version: 6.00 Build 0)  -->
<svg version="1.1" id="Capa_1" xmlns="http://www.w3.org/2000/svg" xmlns:xlink="http://www.w3.org/1999/xlink" x="0px" y="0px"
	 viewBox="0 0 512 512" style="enable-background:new 0 0 512 512;" xml:space="preserve">
<g>
	<path style="fill:#CC4B4C;" d="M242.092,505.216c3.345,4.281,8.475,6.784,13.909,6.784c5.433,0,10.564-2.502,13.909-6.784
		c43.087-55.038,171.47-213.906,171.47-317.484C441.379,61.793,358.314,0,256.001,0S70.621,61.793,70.621,187.732
		C70.621,291.31,199.004,450.178,242.092,505.216z"/>
	<circle style="fill:#802F34;" cx="256" cy="185.379" r="132.414"/>
	<path style="fill:#BDC3C7;" d="M344.276,176.552h-79.448V97.103c0-4.875-3.952-8.828-8.828-8.828c-4.875,0-8.828,3.952-8.828,8.828
		v79.448h-79.448c-4.875,0-8.828,3.952-8.828,8.828c0,4.875,3.952,8.828,8.828,8.828h79.448v79.448c0,4.875,3.952,8.828,8.828,8.828
		c4.875,0,8.828-3.952,8.828-8.828v-79.448h79.448c4.875,0,8.828-3.952,8.828-8.828
		C353.103,180.504,349.151,176.552,344.276,176.552z"/>
	<circle style="fill:#ECF0F1;" cx="256" cy="185.379" r="61.793"/>
</g>
<g>
</g>
<g>
</g>
<g>
</g>
<g>
</g>
<g>
</g>
<g>
</g>
<g>
</g>
<g>
</g>
<g>
</g>
<g>
</g>
<g>
</g>
<g>
</g>
<g>
</g>
<g>
</g>
<g>
</g>
</svg>
