<?xml version="1.0" encoding="iso-8859-1"?>
<!-- Generator: Adobe Illustrator 19.0.0, SVG Export Plug-In . SVG Version: 6.00 Build 0)  -->
<svg version="1.1" id="Capa_1" xmlns="http://www.w3.org/2000/svg" xmlns:xlink="http://www.w3.org/1999/xlink" x="0px" y="0px"
	 viewBox="0 0 512 512" style="enable-background:new 0 0 512 512;" xml:space="preserve">
<path style="fill:#00CDCD;" d="M250.846,0l-30.32,26.884l50.533,57.304H165.041c-66.976,0-121.279,54.303-121.279,121.279V316.64
	h40.426V205.467c0-44.651,36.202-80.853,80.853-80.853h106.625l-50.533,57.304l30.32,26.884l92.273-104.401L250.846,0z"/>
<path style="fill:#6A7D98;" d="M427.812,195.36v111.173c0,44.651-36.202,80.853-80.853,80.853H240.335l50.533-57.304l-30.32-26.884
	l-92.273,104.401L261.053,512l30.32-26.884l-50.533-57.304h106.119c66.976,0,121.279-54.303,121.279-121.279V195.36L427.812,195.36
	L427.812,195.36z"/>
<g>
</g>
<g>
</g>
<g>
</g>
<g>
</g>
<g>
</g>
<g>
</g>
<g>
</g>
<g>
</g>
<g>
</g>
<g>
</g>
<g>
</g>
<g>
</g>
<g>
</g>
<g>
</g>
<g>
</g>
</svg>
